<?xml version="1.0" encoding="iso-8859-1"?>
<!-- Generator: Adobe Illustrator 16.0.0, SVG Export Plug-In . SVG Version: 6.00 Build 0)  -->
<!DOCTYPE svg PUBLIC "-//W3C//DTD SVG 1.1//EN" "http://www.w3.org/Graphics/SVG/1.1/DTD/svg11.dtd">
<svg version="1.1" xmlns="http://www.w3.org/2000/svg" xmlns:xlink="http://www.w3.org/1999/xlink" x="0px" y="0px"
	 width="100%" height="100%" viewBox="0 0 390 390" style="enable-background:new 0 0 390 390;" xml:space="preserve">
<g>
	<g>
		<path d="M355.529,171.52H390c-5.16-43.57-24.631-83.888-56.131-115.389C302.368,24.631,262.051,5.16,218.48,0v34.471
			C289.18,44.768,345.232,100.82,355.529,171.52z"/>
		<path d="M171.52,34.471V0C127.95,5.16,87.632,24.631,56.131,56.131C24.631,87.632,5.16,127.949,0,171.52h34.471
			C44.768,100.82,100.82,44.768,171.52,34.471z"/>
		<path d="M218.48,355.529V390c43.569-5.16,83.888-24.631,115.389-56.131c31.5-31.501,50.971-71.818,56.131-115.389h-34.471
			C345.232,289.18,289.18,345.232,218.48,355.529z"/>
		<path d="M34.471,218.48H0c5.16,43.569,24.631,83.888,56.131,115.389c31.501,31.5,71.818,50.971,115.389,56.131v-34.471
			C100.82,345.232,44.768,289.18,34.471,218.48z"/>
		<path d="M108.471,171.52c8.312-30.596,32.453-54.737,63.049-63.049V73.433c-49.473,9.538-88.549,48.614-98.087,98.087H108.471z"/>
		<path d="M108.471,218.48H73.433c9.538,49.473,48.614,88.549,98.087,98.086v-35.037
			C140.924,273.218,116.782,249.076,108.471,218.48z"/>
		<path d="M281.529,218.48c-8.312,30.596-32.453,54.736-63.049,63.049v35.037c49.473-9.537,88.549-48.613,98.087-98.086H281.529z"/>
		<path d="M281.529,171.52h35.038c-9.538-49.473-48.614-88.549-98.087-98.087v35.038
			C249.076,116.782,273.218,140.924,281.529,171.52z"/>
		<path d="M204.521,149.045V0h-19.042v149.045c-18.252,3.775-32.658,18.182-36.434,36.434H0v19.042h149.045
			c3.775,18.252,18.182,32.658,36.434,36.435V390h19.042V240.955c18.252-3.775,32.658-18.182,36.435-36.436H390v-19.042H240.955
			C237.18,167.227,222.773,152.82,204.521,149.045z"/>
	</g>
</g>
</svg>
