<svg id="Layer_1" data-name="Layer 1" xmlns="http://www.w3.org/2000/svg" viewBox="0 0 512 142"><defs><style>.cls-1{fill:#333;}.cls-2{fill:#f7931e;}.cls-3{fill:#29abe2;}</style></defs><title>logotype1_512px</title><rect class="cls-1" x="19.14" y="14.84" width="109.08" height="109.08" rx="18.03" ry="18.03"/><path class="cls-2" d="M84.18,82a3,3,0,0,1-1.62,1.85h0a3,3,0,0,1-2.12.14l-7.37-2.24-27.3-8.3-0.1,0a3.08,3.08,0,0,0,.5,0,3,3,0,0,0,1.5-.4l6-3.44,0.07,0,28.49,8.66A3,3,0,0,1,84.18,82Z"/><path class="cls-3" d="M92.92,33.29H68.12a8.23,8.23,0,0,0-8.21,8.21v60.09a3.88,3.88,0,1,0,7.75,0V68.4H92.92a8.23,8.23,0,0,0,8.21-8.21V41.5A8.23,8.23,0,0,0,92.92,33.29Zm0.72,25.51A3.23,3.23,0,0,1,90.41,62H70.62a3.23,3.23,0,0,1-3-2,3.27,3.27,0,0,1-.26-1.27V42.9a3.23,3.23,0,0,1,3.22-3.22H90.41a3.23,3.23,0,0,1,3.22,3.22V58.81Z"/><path class="cls-2" d="M83.31,57.17c-2.29,2.52-5.9,2-8.39.23L53.7,69.63l-0.07,0-6,3.44a3,3,0,0,1-1.5.4,3.08,3.08,0,0,1-.5,0,3,3,0,0,1-1.87-1.12,0.37,0.37,0,0,1-.07-0.11A1.7,1.7,0,0,1,43.56,72a3,3,0,0,1,1.1-4.1l27.27-15.7,0-.07c-0.17-3.2,1.49-6.91,5.11-7.32,6.86-.8,9.14-1.7,11,1.54,0.09,0.16.16,0.32,0.24,0.47l0,0.08c0.08,0.15.16,0.3,0.24,0.47C90,50.77,88,52.1,83.31,57.17Z"/><path class="cls-2" d="M82.56,83.89a3,3,0,0,1-.38.22L50,99.41A3,3,0,1,1,47.44,94L73.07,81.79,80.44,84A3,3,0,0,0,82.56,83.89Z"/><path class="cls-1" d="M149.34,68c0-.26,0-0.53,0-0.8V45a3.73,3.73,0,0,1,3.77-3.77h15.08c5.5,0,12.67,1.06,15.23,3.47V44.8C185.91,47.28,187,53,187,56.33c0,3.62-1.06,9-3.54,11.54v0.08c-2.56,2.41-10.1,3.47-15.23,3.47H156.88V90.26c0,5.05-7.54,5.05-7.54,0V68Zm7.54-4.17h11.31c4.67,0,9.2-.6,10-1.36s1.28-3.32,1.28-6.18c0-2.71-.45-5.43-1.28-6.18s-5.05-1.36-10-1.36H156.88V63.87Z"/><path class="cls-1" d="M196.92,58.06c-1.36-4.83,6-6.79,7.24-2l8.29,30.38h1.7l7.58-30.31a3.64,3.64,0,0,1,3.62-2.89,3.74,3.74,0,0,1,3.9,3.64,4.42,4.42,0,0,1-.13,1.06l-8.29,33.17c-2.41,10.18-7.61,16.36-16.44,16.36-5.05,0-5.05-7.54,0-7.54,4.21,0,6.18-1.3,7.78-6h-2.58A3.71,3.71,0,0,1,206,91.24Z"/><path class="cls-1" d="M275,55.2c0.45,5.05-7,5.73-7.54.75-0.3-3.69-.53-4.45-1.66-5.5-1.43-1.36-4.67-2.41-8-2.41-3.54,0-7.39.6-8.82,1.88-1.36,1.13-1.73,2.94-1.73,6,0,7.84,28.65,7.84,28.65,23.37,0,3.85-1.13,9.27-4.6,12-3.17,2.49-9.2,3.47-13.5,3.47-4.15,0-10.78-1.13-14-3.92a17.8,17.8,0,0,1-5.58-10.48c-0.45-5.05,7.09-5.73,7.54-.75a8.41,8.41,0,0,0,2.86,5.5c1.73,1.43,5.65,2.11,9.2,2.11,3.69,0,7.16-.53,8.82-1.81,1.36-1.06,1.73-3,1.73-6.11,0-8-28.65-8-28.65-23.37,0-3.85,1.13-9,4.3-11.76,3.09-2.64,9.65-3.69,13.8-3.69,4.52,0,10.48,2,13.12,4.37C273.9,47.58,274.58,51.05,275,55.2Z"/><path class="cls-1" d="M318.46,62c2,4.67-5.05,7.54-6.94,2.87a8.52,8.52,0,0,0-2.64-3.39,13.45,13.45,0,0,0-5.8-1.36c-3.77,0-6.41.53-8.14,2.26h-0.08c-1.66,1.58-2.34,6.48-2.26,11.23v0.08c0,4.83.6,9.73,2.26,11.23V85c1.88,1.73,4.45,2.26,8.22,2.26a17.37,17.37,0,0,0,5.8-1.06c1.13-.6,1.89-1.28,2.94-3.54,2.11-4.52,8.9-1.43,6.79,3.17a14.94,14.94,0,0,1-6.26,7,24.85,24.85,0,0,1-9.27,2c-4.52,0-10-1.13-13.34-4.3C286,87,285.06,78.95,285.06,73.67s1.06-13.34,4.6-16.74c3.39-3.24,8.9-4.37,13.42-4.37,2.64,0,7.46,1.06,9.8,2.56H313A17.47,17.47,0,0,1,318.46,62Z"/><path class="cls-1" d="M337.08,56.93a15.22,15.22,0,0,1,9.65-3.62c5.05,0,5.05,7.54,0,7.54-5.63,0-9.44,4.31-9.65,11.46V73.6c0,0.1,0,.2,0,0.29V90.26c0,5.05-7.54,5.05-7.54,0V73.75c0-.3,0-0.6,0-0.9V57.08C329.54,52.08,336.93,52,337.08,56.93Z"/><path class="cls-1" d="M365.51,49.17c-5.05,0-5.05-7.54,0-7.54h0.08c5.05,0,5.05,7.54,0,7.54h-0.08Zm-3.77,7.92c0-5.05,7.54-5.05,7.54,0V90.26c0,5.05-7.54,5.05-7.54,0V57.08Z"/><path class="cls-1" d="M382.63,72.67V57.08c0-4.23,5.3-4.92,7-2.05A21,21,0,0,1,400,52.56c4.45,0,9.42,1.13,12.74,4.37,3.47,3.39,4.6,11.46,4.6,16.74s-1.13,13.42-4.67,16.74c-3.24,3.09-8.22,4.37-12.67,4.37a21.57,21.57,0,0,1-9.8-2.16v11.06c0,5.05-7.54,5.05-7.54,0v-30C382.63,73.35,382.62,73,382.63,72.67Zm7.54,1c0,4.83.6,9.8,2.19,11.31,1.81,1.73,4.07,2.26,7.62,2.26s5.65-.53,7.54-2.26c1.58-1.51,2.26-6.48,2.26-11.31s-0.68-9.73-2.34-11.31c-1.81-1.73-3.92-2.26-7.46-2.26s-5.88.53-7.62,2.19c-1.43,1.49-2.12,5.62-2.19,9.89v1.49Z"/><path class="cls-1" d="M438.87,60.85V82c0,2.64.08,3.69,0.3,4a0.16,0.16,0,0,1,.15.15c0.38,0.3,1.28.38,3.69,0.38,5.05,0,5.05,7.54,0,7.54-2.56,0-6.79-.23-9-2.71-2.41-2.19-2.64-6.56-2.64-9.35V60.85h-2c-5.05,0-5.05-7.54,0-7.54h2V46.53c0-5.05,7.54-5.05,7.54,0v6.79H443c5.05,0,5.05,7.54,0,7.54h-4.15Z"/><path class="cls-1" d="M485.17,63.12c0.83,5-6.63,6.18-7.39,1.21-0.45-2.49-.38-2.26-1.28-3s-2.94-1.21-5.5-1.21c-2.71,0-5.5.3-6.33,1.06h-0.08c-0.83.68-1.06,1.73-1.13,3.92,0,5.35,22.62,3.85,22.62,17.27v0.08c-0.08,3.09-1.21,7.69-4.15,9.8-2.71,2-7.69,2.64-11,2.56s-8-.45-10.78-2.41h-0.08a12.13,12.13,0,0,1-4.83-7.09c-0.9-5,6.56-6.26,7.39-1.36,0.15,0.9.45,1.28,1.81,2.26,1.06,0.75,3.69,1,6.63,1.06s5.28-.23,6.33-1.06l0.08-.08c0.75-.53,1-1.66,1.06-3.85,0-5.35-22.62-3.84-22.62-17.26V64.93c0.08-3.09,1.21-7.46,4-9.65,2.56-2.11,7.92-2.71,11.08-2.71,3.32,0,8,1.06,10.25,2.86h0.08C483.73,57.39,484.71,59.87,485.17,63.12Z"/></svg>