<svg id="Layer_1" data-name="Layer 1" xmlns="http://www.w3.org/2000/svg" viewBox="0 0 512 512"><defs><style>.cls-1{fill:#333;}.cls-2{fill:#f7931e;}.cls-3{fill:#29abe2;}</style></defs><title>logomark</title><rect class="cls-1" x="31.88" y="30.44" width="449.88" height="449.88" rx="74.34" ry="74.34"/><path class="cls-2" d="M300.12,307.56a12.33,12.33,0,0,1-6.68,7.65h0a12.32,12.32,0,0,1-8.74.58l-30.39-9.23-112.6-34.22-0.42-.13a12.7,12.7,0,0,0,2,.17,12.35,12.35,0,0,0,6.18-1.65l24.61-14.18,0.27-.15,117.49,35.7A12.38,12.38,0,0,1,300.12,307.56Z"/><path class="cls-3" d="M336.14,106.54H233.86A34,34,0,0,0,200,140.4V388.22a16,16,0,1,0,32,0V251.32c0.62,0,1.27.06,1.89,0.06H336.14A34,34,0,0,0,370,217.52V140.4A34,34,0,0,0,336.14,106.54Zm3,105.22a13.33,13.33,0,0,1-13.29,13.29H244.19A13.34,13.34,0,0,1,232,217a13.49,13.49,0,0,1-1.07-5.22v-65.6a13.33,13.33,0,0,1,13.29-13.29h81.63a13.33,13.33,0,0,1,13.29,13.29v65.6Z"/><path class="cls-2" d="M296.51,205c-9.44,10.39-24.32,8.08-34.59,1l-87.54,50.43-0.27.15L149.5,270.74a12.35,12.35,0,0,1-6.18,1.65,12.7,12.7,0,0,1-2-.17,12.28,12.28,0,0,1-7.72-4.61,1.51,1.51,0,0,1-.29-0.45,7,7,0,0,1-.66-1,12.39,12.39,0,0,1,4.53-16.9l112.46-64.77-0.16-.29c-0.7-13.19,6.14-28.48,21.07-30.17,28.28-3.3,37.68-7,45.26,6.35,0.37,0.66.66,1.31,1,1.93l0.17,0.33c0.33,0.62.66,1.24,1,1.94C324.29,178.61,315.76,184.09,296.51,205Z"/><path class="cls-2" d="M293.42,315.22a12.19,12.19,0,0,1-1.58.9l-132.61,63.1a12.38,12.38,0,1,1-10.64-22.36l105.7-50.29,30.39,9.23A12.32,12.32,0,0,0,293.42,315.22Z"/></svg>