<svg xmlns="http://www.w3.org/2000/svg" xmlns:xlink="http://www.w3.org/1999/xlink">
    <defs><linearGradient id="B" x1="10" y1="1.043" x2="10" y2="22.435" gradientUnits="userSpaceOnUse"><stop stop-color="#fff"></stop><stop offset="1" stop-color="#fff" stop-opacity="0"></stop></linearGradient><linearGradient id="A" x1="18" y1="2" x2="18" y2="48.452" gradientUnits="userSpaceOnUse"><stop stop-color="#fff"></stop><stop offset="1" stop-color="#fff" stop-opacity="0"></stop></linearGradient><clipPath id="eye-crossed-a"><path fill="#fff" d="M0 0h16v16H0z"></path></clipPath><clipPath id="clip0"><path fill="#fff" d="M0 0h16v16H0z"></path></clipPath><linearGradient id="paint_angry_linear" x1="16" y1="4.666" x2="16" y2="24.261" gradientUnits="userSpaceOnUse"><stop stop-color="#F7B259"></stop><stop offset="1" stop-color="#EE3323"></stop></linearGradient><linearGradient id="paint_sad_linear" x1="16" y1="3.937" x2="16" y2="25.501" gradientUnits="userSpaceOnUse"><stop stop-color="#5EAEE5"></stop><stop offset=".455" stop-color="#AAB09F"></stop><stop offset=".823" stop-color="#E2B16D"></stop><stop offset="1" stop-color="#F7B259"></stop></linearGradient><rect id="a" width="36" height="20" rx="4"></rect><mask id="b" x="0" y="0" width="36" height="20" fill="#fff"><use xlink:href="#a"></use></mask><clipPath id="clip0comm"><path fill="#fff" transform="translate(.5)" d="M0 0h16v16H0z"></path></clipPath><mask id="mask0" style="mask-type:alpha" maskUnits="userSpaceOnUse" x="3" y="3" width="43" height="42"><path d="M24.094 45c11.598 0 21-9.402 21-21s-9.402-21-21-21-21 9.402-21 21 9.402 21 21 21Z" fill="#8AC858"></path></mask><radialGradient id="paint0_radial" cx="0" cy="0" r="1" gradientUnits="userSpaceOnUse" gradientTransform="matrix(0 5.57802 -6.33866 0 10.278 10)"><stop stop-color="#3E671B"></stop><stop offset="1" stop-color="#77AB4F"></stop></radialGradient><linearGradient id="paint0_linear_2" x1="23.5" y1="-4.5" x2="10" y2="18" gradientUnits="userSpaceOnUse"><stop stop-color="#FFE491"></stop><stop offset=".505" stop-color="#FFC000" stop-opacity=".495"></stop><stop offset="1" stop-color="#fff" stop-opacity="0"></stop></linearGradient><linearGradient id="paint10_linear" x1="2.83" y1="19.846" x2="5.026" y2="26.633" gradientUnits="userSpaceOnUse"><stop stop-color="#DD571D"></stop><stop offset=".645" stop-color="#DF6132"></stop></linearGradient><linearGradient id="paint1_linear_2" x1="9.659" y1="15.773" x2="18.46" y2="20.493" gradientUnits="userSpaceOnUse"><stop stop-color="#DD571D"></stop><stop offset=".645" stop-color="#DF6132"></stop></linearGradient><linearGradient id="paint2_linear_2" x1="9.551" y1="16.552" x2="18.583" y2="20.803" gradientUnits="userSpaceOnUse"><stop stop-color="#DD571D"></stop><stop offset=".645" stop-color="#DF6132"></stop></linearGradient><linearGradient id="paint4_linear_2" x1="7.139" y1="18.488" x2="14.598" y2="24.775" gradientUnits="userSpaceOnUse"><stop stop-color="#DD571D"></stop><stop offset="1" stop-color="#DF6132"></stop></linearGradient><linearGradient id="paint5_linear" x1="41.782" y1="18.301" x2="9.337" y2="-7.723" gradientUnits="userSpaceOnUse"><stop stop-color="#FFE491"></stop><stop offset=".129" stop-color="#FFE491"></stop><stop offset=".222" stop-color="#FFCB7D"></stop><stop offset=".577" stop-color="#FF9333"></stop><stop offset="1" stop-color="#FFD99C"></stop></linearGradient><radialGradient id="paint3_radial_2" cx="0" cy="0" r="1" gradientUnits="userSpaceOnUse" gradientTransform="matrix(8.15404 .55622 -.33024 4.84121 14.294 14.948)"><stop stop-color="#BD350E"></stop><stop offset=".437" stop-color="#BF3710" stop-opacity=".509"></stop><stop offset=".62" stop-color="#C43E15" stop-opacity=".304"></stop><stop offset=".755" stop-color="#CE4B20" stop-opacity=".152"></stop><stop offset=".867" stop-color="#DB5C2E" stop-opacity=".027"></stop><stop offset=".891" stop-color="#DF6132" stop-opacity=".01"></stop></radialGradient><radialGradient id="paint66_radial" cx="0" cy="0" r="1" gradientUnits="userSpaceOnUse" gradientTransform="matrix(1.84356 -2.56095 8.4484 6.0818 18.636 4.431)"><stop stop-color="#E74C29"></stop><stop offset=".259" stop-color="#DE4926"></stop><stop offset=".673" stop-color="#C7421C"></stop><stop offset="1" stop-color="#B03B13"></stop></radialGradient><radialGradient id="paint3_radial" cx="0" cy="0" r="1" gradientUnits="userSpaceOnUse" gradientTransform="matrix(5.70792 .38936 -.23117 3.3889 6.105 9.364)"><stop stop-color="#BD350E"></stop><stop offset=".437" stop-color="#BF3710" stop-opacity=".509"></stop><stop offset=".62" stop-color="#C43E15" stop-opacity=".304"></stop><stop offset=".755" stop-color="#CE4B20" stop-opacity=".152"></stop><stop offset=".867" stop-color="#DB5C2E" stop-opacity=".027"></stop><stop offset=".891" stop-color="#DF6132" stop-opacity=".01"></stop></radialGradient><radialGradient id="paint5_radial" cx="0" cy="0" r="1" gradientUnits="userSpaceOnUse" gradientTransform="matrix(5.70792 .38936 -.3077 4.51068 6.105 9.364)"><stop stop-color="#BD350E"></stop><stop offset=".437" stop-color="#BF3710" stop-opacity=".509"></stop><stop offset=".62" stop-color="#C43E15" stop-opacity=".304"></stop><stop offset=".755" stop-color="#CE4B20" stop-opacity=".152"></stop><stop offset=".867" stop-color="#DB5C2E" stop-opacity=".027"></stop><stop offset=".891" stop-color="#DF6132" stop-opacity=".01"></stop></radialGradient><radialGradient id="paint6_radial" cx="0" cy="0" r="1" gradientUnits="userSpaceOnUse" gradientTransform="matrix(3.76699 0 0 5.75381 1.884 8.65)"><stop stop-color="#E05E21"></stop><stop offset=".565" stop-color="#DF602A" stop-opacity=".366"></stop><stop offset=".891" stop-color="#DF6132" stop-opacity=".01"></stop></radialGradient><radialGradient id="paint7_radial" cx="0" cy="0" r="1" gradientUnits="userSpaceOnUse" gradientTransform="matrix(3.43105 -.26644 .38005 4.89394 4.493 9.557)"><stop stop-color="#E05E21"></stop><stop offset=".565" stop-color="#DF602A" stop-opacity=".366"></stop><stop offset=".891" stop-color="#DF6132" stop-opacity=".01"></stop></radialGradient><radialGradient id="paint8_radial" cx="0" cy="0" r="1" gradientUnits="userSpaceOnUse" gradientTransform="matrix(1.9258 .69277 -.81353 2.26147 9.542 12.416)"><stop stop-color="#C13B12"></stop><stop offset=".723" stop-color="#DD5D28" stop-opacity=".414"></stop><stop offset=".994" stop-color="#DF602A" stop-opacity=".01"></stop><stop offset="1" stop-color="#DF6132" stop-opacity=".01"></stop></radialGradient><radialGradient id="paint9_radial" cx="0" cy="0" r="1" gradientUnits="userSpaceOnUse" gradientTransform="rotate(-155.017 6.478 1.388) scale(14.9871 12.8928)"><stop stop-color="#FFE491"></stop><stop offset=".129" stop-color="#FFE491"></stop><stop offset=".299" stop-color="#F9C16E"></stop><stop offset=".528" stop-color="#F19645"></stop><stop offset="1" stop-color="#EE8635"></stop></radialGradient><radialGradient id="paint10_radial" cx="0" cy="0" r="1" gradientUnits="userSpaceOnUse" gradientTransform="rotate(-54.251 6.526 -7.925) scale(2.20888 7.28696)"><stop stop-color="#E74C29"></stop><stop offset=".259" stop-color="#DE4926"></stop><stop offset=".673" stop-color="#C7421C"></stop><stop offset="1" stop-color="#B03B13"></stop></radialGradient><linearGradient id="paint0_linear" x1="-1.92" y1="12.792" x2="-.382" y2="17.543" gradientUnits="userSpaceOnUse"><stop stop-color="#DD571D"></stop><stop offset=".645" stop-color="#DF6132"></stop></linearGradient><linearGradient id="paint1_linear" x1="2.861" y1="9.941" x2="9.022" y2="13.245" gradientUnits="userSpaceOnUse"><stop stop-color="#DD571D"></stop><stop offset=".645" stop-color="#DF6132"></stop></linearGradient><linearGradient id="paint2_linear" x1="2.785" y1="10.486" x2="9.108" y2="13.462" gradientUnits="userSpaceOnUse"><stop stop-color="#DD571D"></stop><stop offset=".645" stop-color="#DF6132"></stop></linearGradient><linearGradient id="paint4_linear" x1="1.097" y1="11.842" x2="6.318" y2="16.243" gradientUnits="userSpaceOnUse"><stop stop-color="#DD571D"></stop><stop offset=".645" stop-color="#DF6132"></stop></linearGradient><radialGradient id="pkb1" cx="0" cy="0" r="1" gradientTransform="matrix(11.6095 .75457 -.56841 8.74533 13.24 18.89)" gradientUnits="userSpaceOnUse"><stop stop-color="#BD350E"></stop><stop offset=".44" stop-color="#BF3710" stop-opacity=".51"></stop><stop offset=".62" stop-color="#C43E15" stop-opacity=".3"></stop><stop offset=".76" stop-color="#CE4B20" stop-opacity=".15"></stop><stop offset=".87" stop-color="#DB5C2E" stop-opacity=".03"></stop><stop offset=".89" stop-color="#DF6132" stop-opacity=".01"></stop></radialGradient><radialGradient id="pkb2" cx="0" cy="0" r="1" gradientTransform="matrix(7.21222 0 0 10.9971 4.56 17.34)" gradientUnits="userSpaceOnUse"><stop stop-color="#E05E21"></stop><stop offset=".56" stop-color="#DF602A" stop-opacity=".37"></stop><stop offset=".89" stop-color="#DF6132" stop-opacity=".01"></stop></radialGradient><radialGradient id="pkb3" cx="0" cy="0" r="1" gradientTransform="matrix(6.56903 -.50925 .72514 9.35388 9.55 19.07)" gradientUnits="userSpaceOnUse"><stop stop-color="#E05E21"></stop><stop offset=".56" stop-color="#DF602A" stop-opacity=".37"></stop><stop offset=".89" stop-color="#DF6132" stop-opacity=".01"></stop></radialGradient><radialGradient id="pkb4" cx="0" cy="0" r="1" gradientTransform="matrix(3.6871 1.32408 -1.5528 4.32403 19.22 24.54)" gradientUnits="userSpaceOnUse"><stop stop-color="#C13B12"></stop><stop offset=".72" stop-color="#DD5D28" stop-opacity=".41"></stop><stop offset=".99" stop-color="#DF602A" stop-opacity=".01"></stop><stop offset="1" stop-color="#DF6132" stop-opacity=".01"></stop></radialGradient><radialGradient id="pkb5" cx="0" cy="0" r="1" gradientTransform="rotate(-155.06 12.96 2.95) scale(28.6853 24.6493)" gradientUnits="userSpaceOnUse"><stop stop-color="#FFE491"></stop><stop offset=".13" stop-color="#FFE491"></stop><stop offset=".3" stop-color="#F9C16E"></stop><stop offset=".53" stop-color="#F19645"></stop><stop offset="1" stop-color="#EE8635"></stop></radialGradient><radialGradient id="pkb6" cx="0" cy="0" r="1" gradientTransform="matrix(2.47103 -3.42617 11.3089 8.15624 18.457 4.628)" gradientUnits="userSpaceOnUse"><stop stop-color="#E74C29"></stop><stop offset=".26" stop-color="#DE4926"></stop><stop offset=".67" stop-color="#C7421C"></stop><stop offset="1" stop-color="#B03B13"></stop></radialGradient><linearGradient id="pkb0" x1="3.05" x2="13.03" y1="23.44" y2="31.87" gradientUnits="userSpaceOnUse"><stop stop-color="#DD571D"></stop><stop offset=".65" stop-color="#DF6132"></stop></linearGradient><linearGradient id="paint-preloader_linear" x1="12.083" y1="2.75" x2="14.417" y2="8" gradientUnits="userSpaceOnUse"><stop stop-color="#BDBDBF"></stop><stop offset=".526" stop-color="#BDBDBF" stop-opacity=".6"></stop><stop offset="1" stop-color="#BDBDBF" stop-opacity="0"></stop></linearGradient><circle id="loadingCircle" cx="50" cy="50" r="50"></circle><mask id="loadingCircleMask" x="0" y="0" width="100" height="100" fill="#fff"><use xlink:href="#loadingCircle"></use></mask><linearGradient id="telegram-logo-16-a" x1="10.672" y1="2.672" x2="6.672" y2="12" gradientUnits="userSpaceOnUse"><stop stop-color="#37AEE2"></stop><stop offset="1" stop-color="#1E96C8"></stop></linearGradient><linearGradient id="telegram-logo-16-b" x1="9.003" y1="8.001" x2="10.251" y2="10.845" gradientUnits="userSpaceOnUse"><stop stop-color="#EFF7FC"></stop><stop offset="1" stop-color="#fff"></stop></linearGradient><linearGradient id="telegram_paint11_linear" x1="10.672" y1="2.672" x2="6.672" y2="12" gradientUnits="userSpaceOnUse"><stop stop-color="#37AEE2"></stop><stop offset="1" stop-color="#1E96C8"></stop></linearGradient><linearGradient id="telegram_paint1_linear" x1="9.003" y1="8.001" x2="10.252" y2="10.845" gradientUnits="userSpaceOnUse"><stop stop-color="#EFF7FC"></stop><stop offset="1" stop-color="#fff"></stop></linearGradient><clipPath id="clip1"><path fill="#fff" transform="translate(6 6)" d="M0 0h12v12H0z"></path></clipPath></defs>
    <symbol id="icon--emotions__angry" viewBox="0 0 32 32"><path d="M3.465 10.652C3.919 7.779 5.074 2.156 16 2.156c11.388 0 12.147 5.688 12.649 8.496-4.522 4.38-25.184 0-25.184 0Z" fill="#FCD996"></path><path d="M29.206 16.568c-.133 8.36-5.773 12.729-13.164 12.729s-13.25-5.22-13.254-12.503C2.784 4.668 8.606 2.924 15.997 2.924c7.39 0 13.4 1.569 13.209 13.644Z" fill="url(#paint_angry_linear)"></path><path d="M3.266 20.274S7.112 26.75 16 26.75s12.734-6.476 12.734-6.476-1.38 9.57-12.691 9.57c-11.312 0-12.777-9.57-12.777-9.57Z" fill="#B52121"></path><path d="M6.31 14.34s.432 2.475 2.514 2.977c2.325.56 3.503-1.606 3.503-1.606S5.42 8.3 6.31 14.34Z" fill="#590402"></path><path d="M6.378 13.077s-.742.08-.55 1.485c.136.983.682 2.49 2.265 2.86 2.286.535 3.539-.338 4.006-1.443 0 0-.788 1.578-3.348 1.092-1.924-.366-2.373-3.994-2.373-3.994Z" fill="#460301"></path><path d="M11.274 15.698s-.548.935-1.618.688c-1.07-.247-1.061-1.63-1.061-1.63s.649.066 1.472.204a1.858 1.858 0 0 1 1.207.738Z" fill="#A32B2B"></path><path d="M10.423 15.917c.504.153.404.64 0 .47-.404-.168-.774-.706 0-.47ZM8.707 15.116c.272.058.078.362-.13.284-.206-.077-.232-.361.13-.284Z" fill="#fff"></path><path d="M14.438 13.514c.552.649-.138 2.419-1.375 2.61-1.237.193-4.807-1.413-6.362-2.612C5.145 12.314 4.387 11.8 4.81 10.95c.423-.851.957-.742 2.065-.195 1.108.547 3.19 1.503 4.75 1.923 1.03.276 2.406.358 2.813.836Z" fill="#590402"></path><path d="M14.609 14.387s-.327 1.72-1.727 1.848c-1.4.127-4.516-1.492-6.045-2.525-1.53-1.033-2.73-1.73-1.924-2.955 0 0 .369 1.162 2.558 2.478 2.189 1.316 4.548 2.182 5.512 2.098.965-.084 1.626-.944 1.626-.944Z" fill="#460301"></path><path d="M25.983 14.698s-.432 2.475-2.514 2.977c-2.325.56-3.503-1.606-3.503-1.606s6.906-7.411 6.017-1.371Z" fill="#590402"></path><path d="M25.915 13.435s.742.08.549 1.485c-.135.983-.705 2.652-2.287 3.022-2.286.534-3.515-.5-3.982-1.605 0 0 .788 1.578 3.348 1.092 1.923-.366 2.372-3.994 2.372-3.994Z" fill="#460301"></path><path d="M21.019 16.056s.548.935 1.618.688c1.07-.247 1.06-1.63 1.06-1.63s-.648.066-1.471.204c-.823.137-1.207.738-1.207.738Z" fill="#A32B2B"></path><path d="M21.803 16.33c-.548.168-.44.696 0 .513.439-.183.84-.768 0-.512ZM23.46 15.619c-.271.058-.077.362.13.284.207-.077.233-.362-.13-.284Z" fill="#fff"></path><path d="M18.109 14.096c-.552.649-.116 2.195 1.12 2.387 1.238.192 4.808-1.414 6.363-2.613 1.556-1.2 2.313-1.711 1.89-2.563-.421-.852-1.093-.61-2.201-.063-1.11.546-3.143 1.425-4.703 1.845-1.03.278-2.062.529-2.47 1.007Z" fill="#590402"></path><path d="M17.86 14.769s.15 1.697 1.55 1.824c1.4.127 4.517-1.492 6.046-2.525s2.73-1.73 1.924-2.955c0 0-.37 1.162-2.558 2.478-2.19 1.316-4.548 2.182-5.512 2.098-.965-.084-1.45-.92-1.45-.92Z" fill="#460301"></path><path d="M17.503 19.313c-1.132-.047-3.588.316-3.871.646l-1.98 2.307-1.037.519s0 .707.896.849c.896.14 1.462-.236 1.698-.66.236-.424.347-1.242 1.478-1.902 1.132-.66 2.688-.475 3.254.044.566.519.874 1.262 1.027 1.725.333 1.01 1.036 1.09 1.696.902.66-.19.787-.82.787-.82s-2.816-3.563-3.948-3.61Z" fill="#FF6C6C"></path><path d="M16.323 18.502c-2.612.01-3.627.933-4.357 1.746-1.204 1.34-1.836 2.647-1.006 2.819.978.203 1.572.22 1.792-.283.22-.503.439-2.306 3.038-2.53 1.808-.154 2.703.408 3.135 1.407.445 1.03.575 1.734 1.172 1.734s1.383-.126 1.352-.534c-.032-.408-1.273-4.374-5.126-4.36Z" fill="#510402"></path></symbol>
    <use xlink:href="#icon--emotions__angry"/>
</svg>
