<svg xmlns="http://www.w3.org/2000/svg" xmlns:xlink="http://www.w3.org/1999/xlink">
    <defs><linearGradient id="B" x1="10" y1="1.043" x2="10" y2="22.435" gradientUnits="userSpaceOnUse"><stop stop-color="#fff"></stop><stop offset="1" stop-color="#fff" stop-opacity="0"></stop></linearGradient><linearGradient id="A" x1="18" y1="2" x2="18" y2="48.452" gradientUnits="userSpaceOnUse"><stop stop-color="#fff"></stop><stop offset="1" stop-color="#fff" stop-opacity="0"></stop></linearGradient><clipPath id="eye-crossed-a"><path fill="#fff" d="M0 0h16v16H0z"></path></clipPath><clipPath id="clip0"><path fill="#fff" d="M0 0h16v16H0z"></path></clipPath><linearGradient id="paint_angry_linear" x1="16" y1="4.666" x2="16" y2="24.261" gradientUnits="userSpaceOnUse"><stop stop-color="#F7B259"></stop><stop offset="1" stop-color="#EE3323"></stop></linearGradient><linearGradient id="paint_sad_linear" x1="16" y1="3.937" x2="16" y2="25.501" gradientUnits="userSpaceOnUse"><stop stop-color="#5EAEE5"></stop><stop offset=".455" stop-color="#AAB09F"></stop><stop offset=".823" stop-color="#E2B16D"></stop><stop offset="1" stop-color="#F7B259"></stop></linearGradient><rect id="a" width="36" height="20" rx="4"></rect><mask id="b" x="0" y="0" width="36" height="20" fill="#fff"><use xlink:href="#a"></use></mask><clipPath id="clip0comm"><path fill="#fff" transform="translate(.5)" d="M0 0h16v16H0z"></path></clipPath><mask id="mask0" style="mask-type:alpha" maskUnits="userSpaceOnUse" x="3" y="3" width="43" height="42"><path d="M24.094 45c11.598 0 21-9.402 21-21s-9.402-21-21-21-21 9.402-21 21 9.402 21 21 21Z" fill="#8AC858"></path></mask><radialGradient id="paint0_radial" cx="0" cy="0" r="1" gradientUnits="userSpaceOnUse" gradientTransform="matrix(0 5.57802 -6.33866 0 10.278 10)"><stop stop-color="#3E671B"></stop><stop offset="1" stop-color="#77AB4F"></stop></radialGradient><linearGradient id="paint0_linear_2" x1="23.5" y1="-4.5" x2="10" y2="18" gradientUnits="userSpaceOnUse"><stop stop-color="#FFE491"></stop><stop offset=".505" stop-color="#FFC000" stop-opacity=".495"></stop><stop offset="1" stop-color="#fff" stop-opacity="0"></stop></linearGradient><linearGradient id="paint10_linear" x1="2.83" y1="19.846" x2="5.026" y2="26.633" gradientUnits="userSpaceOnUse"><stop stop-color="#DD571D"></stop><stop offset=".645" stop-color="#DF6132"></stop></linearGradient><linearGradient id="paint1_linear_2" x1="9.659" y1="15.773" x2="18.46" y2="20.493" gradientUnits="userSpaceOnUse"><stop stop-color="#DD571D"></stop><stop offset=".645" stop-color="#DF6132"></stop></linearGradient><linearGradient id="paint2_linear_2" x1="9.551" y1="16.552" x2="18.583" y2="20.803" gradientUnits="userSpaceOnUse"><stop stop-color="#DD571D"></stop><stop offset=".645" stop-color="#DF6132"></stop></linearGradient><linearGradient id="paint4_linear_2" x1="7.139" y1="18.488" x2="14.598" y2="24.775" gradientUnits="userSpaceOnUse"><stop stop-color="#DD571D"></stop><stop offset="1" stop-color="#DF6132"></stop></linearGradient><linearGradient id="paint5_linear" x1="41.782" y1="18.301" x2="9.337" y2="-7.723" gradientUnits="userSpaceOnUse"><stop stop-color="#FFE491"></stop><stop offset=".129" stop-color="#FFE491"></stop><stop offset=".222" stop-color="#FFCB7D"></stop><stop offset=".577" stop-color="#FF9333"></stop><stop offset="1" stop-color="#FFD99C"></stop></linearGradient><radialGradient id="paint3_radial_2" cx="0" cy="0" r="1" gradientUnits="userSpaceOnUse" gradientTransform="matrix(8.15404 .55622 -.33024 4.84121 14.294 14.948)"><stop stop-color="#BD350E"></stop><stop offset=".437" stop-color="#BF3710" stop-opacity=".509"></stop><stop offset=".62" stop-color="#C43E15" stop-opacity=".304"></stop><stop offset=".755" stop-color="#CE4B20" stop-opacity=".152"></stop><stop offset=".867" stop-color="#DB5C2E" stop-opacity=".027"></stop><stop offset=".891" stop-color="#DF6132" stop-opacity=".01"></stop></radialGradient><radialGradient id="paint66_radial" cx="0" cy="0" r="1" gradientUnits="userSpaceOnUse" gradientTransform="matrix(1.84356 -2.56095 8.4484 6.0818 18.636 4.431)"><stop stop-color="#E74C29"></stop><stop offset=".259" stop-color="#DE4926"></stop><stop offset=".673" stop-color="#C7421C"></stop><stop offset="1" stop-color="#B03B13"></stop></radialGradient><radialGradient id="paint3_radial" cx="0" cy="0" r="1" gradientUnits="userSpaceOnUse" gradientTransform="matrix(5.70792 .38936 -.23117 3.3889 6.105 9.364)"><stop stop-color="#BD350E"></stop><stop offset=".437" stop-color="#BF3710" stop-opacity=".509"></stop><stop offset=".62" stop-color="#C43E15" stop-opacity=".304"></stop><stop offset=".755" stop-color="#CE4B20" stop-opacity=".152"></stop><stop offset=".867" stop-color="#DB5C2E" stop-opacity=".027"></stop><stop offset=".891" stop-color="#DF6132" stop-opacity=".01"></stop></radialGradient><radialGradient id="paint5_radial" cx="0" cy="0" r="1" gradientUnits="userSpaceOnUse" gradientTransform="matrix(5.70792 .38936 -.3077 4.51068 6.105 9.364)"><stop stop-color="#BD350E"></stop><stop offset=".437" stop-color="#BF3710" stop-opacity=".509"></stop><stop offset=".62" stop-color="#C43E15" stop-opacity=".304"></stop><stop offset=".755" stop-color="#CE4B20" stop-opacity=".152"></stop><stop offset=".867" stop-color="#DB5C2E" stop-opacity=".027"></stop><stop offset=".891" stop-color="#DF6132" stop-opacity=".01"></stop></radialGradient><radialGradient id="paint6_radial" cx="0" cy="0" r="1" gradientUnits="userSpaceOnUse" gradientTransform="matrix(3.76699 0 0 5.75381 1.884 8.65)"><stop stop-color="#E05E21"></stop><stop offset=".565" stop-color="#DF602A" stop-opacity=".366"></stop><stop offset=".891" stop-color="#DF6132" stop-opacity=".01"></stop></radialGradient><radialGradient id="paint7_radial" cx="0" cy="0" r="1" gradientUnits="userSpaceOnUse" gradientTransform="matrix(3.43105 -.26644 .38005 4.89394 4.493 9.557)"><stop stop-color="#E05E21"></stop><stop offset=".565" stop-color="#DF602A" stop-opacity=".366"></stop><stop offset=".891" stop-color="#DF6132" stop-opacity=".01"></stop></radialGradient><radialGradient id="paint8_radial" cx="0" cy="0" r="1" gradientUnits="userSpaceOnUse" gradientTransform="matrix(1.9258 .69277 -.81353 2.26147 9.542 12.416)"><stop stop-color="#C13B12"></stop><stop offset=".723" stop-color="#DD5D28" stop-opacity=".414"></stop><stop offset=".994" stop-color="#DF602A" stop-opacity=".01"></stop><stop offset="1" stop-color="#DF6132" stop-opacity=".01"></stop></radialGradient><radialGradient id="paint9_radial" cx="0" cy="0" r="1" gradientUnits="userSpaceOnUse" gradientTransform="rotate(-155.017 6.478 1.388) scale(14.9871 12.8928)"><stop stop-color="#FFE491"></stop><stop offset=".129" stop-color="#FFE491"></stop><stop offset=".299" stop-color="#F9C16E"></stop><stop offset=".528" stop-color="#F19645"></stop><stop offset="1" stop-color="#EE8635"></stop></radialGradient><radialGradient id="paint10_radial" cx="0" cy="0" r="1" gradientUnits="userSpaceOnUse" gradientTransform="rotate(-54.251 6.526 -7.925) scale(2.20888 7.28696)"><stop stop-color="#E74C29"></stop><stop offset=".259" stop-color="#DE4926"></stop><stop offset=".673" stop-color="#C7421C"></stop><stop offset="1" stop-color="#B03B13"></stop></radialGradient><linearGradient id="paint0_linear" x1="-1.92" y1="12.792" x2="-.382" y2="17.543" gradientUnits="userSpaceOnUse"><stop stop-color="#DD571D"></stop><stop offset=".645" stop-color="#DF6132"></stop></linearGradient><linearGradient id="paint1_linear" x1="2.861" y1="9.941" x2="9.022" y2="13.245" gradientUnits="userSpaceOnUse"><stop stop-color="#DD571D"></stop><stop offset=".645" stop-color="#DF6132"></stop></linearGradient><linearGradient id="paint2_linear" x1="2.785" y1="10.486" x2="9.108" y2="13.462" gradientUnits="userSpaceOnUse"><stop stop-color="#DD571D"></stop><stop offset=".645" stop-color="#DF6132"></stop></linearGradient><linearGradient id="paint4_linear" x1="1.097" y1="11.842" x2="6.318" y2="16.243" gradientUnits="userSpaceOnUse"><stop stop-color="#DD571D"></stop><stop offset=".645" stop-color="#DF6132"></stop></linearGradient><radialGradient id="pkb1" cx="0" cy="0" r="1" gradientTransform="matrix(11.6095 .75457 -.56841 8.74533 13.24 18.89)" gradientUnits="userSpaceOnUse"><stop stop-color="#BD350E"></stop><stop offset=".44" stop-color="#BF3710" stop-opacity=".51"></stop><stop offset=".62" stop-color="#C43E15" stop-opacity=".3"></stop><stop offset=".76" stop-color="#CE4B20" stop-opacity=".15"></stop><stop offset=".87" stop-color="#DB5C2E" stop-opacity=".03"></stop><stop offset=".89" stop-color="#DF6132" stop-opacity=".01"></stop></radialGradient><radialGradient id="pkb2" cx="0" cy="0" r="1" gradientTransform="matrix(7.21222 0 0 10.9971 4.56 17.34)" gradientUnits="userSpaceOnUse"><stop stop-color="#E05E21"></stop><stop offset=".56" stop-color="#DF602A" stop-opacity=".37"></stop><stop offset=".89" stop-color="#DF6132" stop-opacity=".01"></stop></radialGradient><radialGradient id="pkb3" cx="0" cy="0" r="1" gradientTransform="matrix(6.56903 -.50925 .72514 9.35388 9.55 19.07)" gradientUnits="userSpaceOnUse"><stop stop-color="#E05E21"></stop><stop offset=".56" stop-color="#DF602A" stop-opacity=".37"></stop><stop offset=".89" stop-color="#DF6132" stop-opacity=".01"></stop></radialGradient><radialGradient id="pkb4" cx="0" cy="0" r="1" gradientTransform="matrix(3.6871 1.32408 -1.5528 4.32403 19.22 24.54)" gradientUnits="userSpaceOnUse"><stop stop-color="#C13B12"></stop><stop offset=".72" stop-color="#DD5D28" stop-opacity=".41"></stop><stop offset=".99" stop-color="#DF602A" stop-opacity=".01"></stop><stop offset="1" stop-color="#DF6132" stop-opacity=".01"></stop></radialGradient><radialGradient id="pkb5" cx="0" cy="0" r="1" gradientTransform="rotate(-155.06 12.96 2.95) scale(28.6853 24.6493)" gradientUnits="userSpaceOnUse"><stop stop-color="#FFE491"></stop><stop offset=".13" stop-color="#FFE491"></stop><stop offset=".3" stop-color="#F9C16E"></stop><stop offset=".53" stop-color="#F19645"></stop><stop offset="1" stop-color="#EE8635"></stop></radialGradient><radialGradient id="pkb6" cx="0" cy="0" r="1" gradientTransform="matrix(2.47103 -3.42617 11.3089 8.15624 18.457 4.628)" gradientUnits="userSpaceOnUse"><stop stop-color="#E74C29"></stop><stop offset=".26" stop-color="#DE4926"></stop><stop offset=".67" stop-color="#C7421C"></stop><stop offset="1" stop-color="#B03B13"></stop></radialGradient><linearGradient id="pkb0" x1="3.05" x2="13.03" y1="23.44" y2="31.87" gradientUnits="userSpaceOnUse"><stop stop-color="#DD571D"></stop><stop offset=".65" stop-color="#DF6132"></stop></linearGradient><linearGradient id="paint-preloader_linear" x1="12.083" y1="2.75" x2="14.417" y2="8" gradientUnits="userSpaceOnUse"><stop stop-color="#BDBDBF"></stop><stop offset=".526" stop-color="#BDBDBF" stop-opacity=".6"></stop><stop offset="1" stop-color="#BDBDBF" stop-opacity="0"></stop></linearGradient><circle id="loadingCircle" cx="50" cy="50" r="50"></circle><mask id="loadingCircleMask" x="0" y="0" width="100" height="100" fill="#fff"><use xlink:href="#loadingCircle"></use></mask><linearGradient id="telegram-logo-16-a" x1="10.672" y1="2.672" x2="6.672" y2="12" gradientUnits="userSpaceOnUse"><stop stop-color="#37AEE2"></stop><stop offset="1" stop-color="#1E96C8"></stop></linearGradient><linearGradient id="telegram-logo-16-b" x1="9.003" y1="8.001" x2="10.251" y2="10.845" gradientUnits="userSpaceOnUse"><stop stop-color="#EFF7FC"></stop><stop offset="1" stop-color="#fff"></stop></linearGradient><linearGradient id="telegram_paint11_linear" x1="10.672" y1="2.672" x2="6.672" y2="12" gradientUnits="userSpaceOnUse"><stop stop-color="#37AEE2"></stop><stop offset="1" stop-color="#1E96C8"></stop></linearGradient><linearGradient id="telegram_paint1_linear" x1="9.003" y1="8.001" x2="10.252" y2="10.845" gradientUnits="userSpaceOnUse"><stop stop-color="#EFF7FC"></stop><stop offset="1" stop-color="#fff"></stop></linearGradient><clipPath id="clip1"><path fill="#fff" transform="translate(6 6)" d="M0 0h12v12H0z"></path></clipPath></defs>
    <symbol id="icon--emotions__smile" viewBox="0 0 32 32"><path d="M3.465 10.652C3.919 7.779 5.074 2.156 16 2.156c11.388 0 12.147 5.688 12.649 8.496-4.522 4.38-25.184 0-25.184 0Z" fill="#FCD996"></path><path d="M29.206 16.568c-.133 8.36-5.773 12.729-13.164 12.729s-13.25-5.22-13.254-12.503C2.784 4.668 8.606 2.924 15.997 2.924c7.39 0 13.4 1.569 13.209 13.644Z" fill="#F7B259"></path><path d="M3.266 20.274S7.112 26.75 16 26.75s12.734-6.476 12.734-6.476-1.38 9.57-12.691 9.57c-11.312 0-12.777-9.57-12.777-9.57Z" fill="#D17715"></path><path d="M8.645 19.603s1.102 6.796 7.453 6.429c6.35-.367 7.865-4.948 7.878-7.39-8.437 1.247-15.331.96-15.331.96Z" fill="#FCD996"></path><path d="M9.154 17.666c2.24.278 9 .975 14.356.035.21-.037.62.144.565.574-.231 1.805-1.374 6.555-7.013 7.142-6.336.659-8.425-4.55-8.653-7.147-.023-.266.259-.664.745-.604Z" fill="#6A3614"></path><path d="M23.334 18.404s-7.081 1.099-14.22-.13c0 0 .109 1.195.338 1.653 0 0 5.176 1.176 12.082.265 1.978-.262 1.8-1.788 1.8-1.788Z" fill="#fff"></path><path d="M17.426 20.764c.68.113 1.368.947.735 1.68-.633.734-2.86 1.013-3.261.546-.402-.467-.841-1.924.014-2.125.855-.201.995.084 1.003.326.008.242-.27.722.19.71.462-.01.084-.58.167-.745.084-.166.543-.494 1.152-.392Z" fill="#512A10"></path><path d="M12.063 23.679s1.555 1.123 4.48 1.12c2.925-.003 4.479-1.49 4.479-1.49s-.306-1.046-1.698-1.21c-2.006-.237-2.832.712-2.832.712s-1.222-.834-2.264-.713c-1.448.169-2.165 1.58-2.165 1.58Z" fill="#C31517"></path><path d="M9.114 18.274s.01.323.055.475c0 0 3.154.577 7.513.604 4.359.027 6.62-.506 6.62-.506s.07-.285.033-.444c0 0-3.191.48-6.7.437-4.97-.061-7.521-.566-7.521-.566Z" fill="#DBC8CF"></path><path d="M25.04 15.976c-1.031-.003-1.57 1.033-.842 1.368.727.335 3.97.95 4.288.344.319-.606.334-1.157-.726-1.392-.574-.127-2.093-.318-2.72-.32ZM7.43 15.868c1.098.056 1.613 1.183.82 1.495-.791.313-4.274.776-4.58.116-.304-.66-.291-1.243.85-1.43.618-.101 2.243-.215 2.91-.181Z" fill="#FF7373"></path><path d="M10.038 3.294c.546-.102 1.367 1.57.934 2.006-.434.434-2.07 1.097-2.855 1.998-.785.9-1.13 1.445-1.724 1.42-.594-.023-.902-.785-.33-1.863.572-1.078 1.879-3.172 3.975-3.561ZM22.29 3.239c-.653-.208-1.041.687-1.304 1.264-.263.577-.205 1.203.275 1.277.48.074 1.868.578 2.765 1.325.897.746 1.072 1.362 1.374 1.216.302-.146.928-.638.857-.986-.071-.35-.592-3.024-3.966-4.096ZM8.655 10.159c-1.68.1-3.466 2.006-3.526 3.335-.06 1.329.005 1.55.647 1.583.642.032 1.222-.112 1.29-.347.07-.235-.205-2.176 1.726-2.576 1.97-.41 2.37 1.47 2.683 1.898.313.427.938.279 1.699.118.519-.11-.21-4.27-4.52-4.011ZM24.136 10.21c1.692.127 3.469 2.06 3.513 3.39.043 1.33-.027 1.55-.674 1.573-.648.023-1.231-.131-1.298-.366-.067-.236.237-2.172-1.706-2.603-1.982-.44-2.411 1.434-2.733 1.857-.322.423-.95.265-1.716.092-.522-.118.269-4.266 4.614-3.942Z" fill="#6A3614"></path><path d="M10.767 3.937s.065.704-.69 1.089C9.325 5.41 8.145 6.309 7.6 6.964c-.545.655-.675 1.245-1.137 1.367-.462.122-.677-.201-.677-.201s.062.678.665.649c.602-.03 1.14-.762 1.496-1.19.356-.426 1.142-1.025 1.669-1.31.526-.285 1.403-.76 1.484-1.031.08-.27.032-.792-.332-1.311ZM21.26 4.044s-.078.586.503.9c.58.316 1.744.657 2.556 1.477.812.82.795 1.216 1.09 1.268.294.052.799-.18.799-.468 0 0 .176.194-.057.53-.232.338-.754.675-.941.64-.187-.035-.928-1.23-1.892-1.694-.964-.464-2.022-.814-2.351-.968-.33-.154-.261-1.134.293-1.685ZM5.159 14.662s-.046.49.77.446c.818-.045 1.114-.133 1.177-.443.063-.31.152-1.991 1.336-2.343 1.184-.352 1.982.06 2.265.492.283.43.68 1.458 1.085 1.543.403.085 1.336-.031 1.467-.256.13-.225.035-.611.035-.611s-.296.423-1.07.28c-.506-.092-.675-1.397-1.723-1.88-1.048-.481-2.65-.364-3.29.607-.641.97-.42 1.697-.827 1.93-.693.399-1.225.235-1.225.235ZM19.427 13.309s.223.386.768.416c.825.046 1.019-1.158 1.526-1.6.507-.442 1.485-1.05 2.912-.42 1.426.63 1.575 1.59 1.672 2.31.096.722.225.802.593.829.367.027.66-.091.66-.091s.136.474-.5.502c-.636.028-1.506-.166-1.572-.555-.066-.39.1-1.895-1.19-2.355-1.288-.46-1.89-.04-2.423.77-.534.81-.616 1.243-1.096 1.317-.48.075-1.191-.167-1.333-.273-.327-.243-.017-.85-.017-.85Z" fill="#512A10"></path><path d="M24.839 10.973s-.97-.618-2.094-.447c-1.125.172-1.37.49-1.11.58.259.09 1.462-.726 3.204-.133ZM10.268 10.96s-.968-.564-2.035-.333c-1.067.232-1.281.564-1.027.64.255.076 1.355-.805 3.062-.307Z" fill="#B2622B"></path></symbol>
    <use xlink:href="#icon--emotions__smile"/>
</svg>
