<svg xmlns="http://www.w3.org/2000/svg" xmlns:xlink="http://www.w3.org/1999/xlink">
    <defs><linearGradient id="B" x1="10" y1="1.043" x2="10" y2="22.435" gradientUnits="userSpaceOnUse"><stop stop-color="#fff"></stop><stop offset="1" stop-color="#fff" stop-opacity="0"></stop></linearGradient><linearGradient id="A" x1="18" y1="2" x2="18" y2="48.452" gradientUnits="userSpaceOnUse"><stop stop-color="#fff"></stop><stop offset="1" stop-color="#fff" stop-opacity="0"></stop></linearGradient><clipPath id="eye-crossed-a"><path fill="#fff" d="M0 0h16v16H0z"></path></clipPath><clipPath id="clip0"><path fill="#fff" d="M0 0h16v16H0z"></path></clipPath><linearGradient id="paint_angry_linear" x1="16" y1="4.666" x2="16" y2="24.261" gradientUnits="userSpaceOnUse"><stop stop-color="#F7B259"></stop><stop offset="1" stop-color="#EE3323"></stop></linearGradient><linearGradient id="paint_sad_linear" x1="16" y1="3.937" x2="16" y2="25.501" gradientUnits="userSpaceOnUse"><stop stop-color="#5EAEE5"></stop><stop offset=".455" stop-color="#AAB09F"></stop><stop offset=".823" stop-color="#E2B16D"></stop><stop offset="1" stop-color="#F7B259"></stop></linearGradient><rect id="a" width="36" height="20" rx="4"></rect><mask id="b" x="0" y="0" width="36" height="20" fill="#fff"><use xlink:href="#a"></use></mask><clipPath id="clip0comm"><path fill="#fff" transform="translate(.5)" d="M0 0h16v16H0z"></path></clipPath><mask id="mask0" style="mask-type:alpha" maskUnits="userSpaceOnUse" x="3" y="3" width="43" height="42"><path d="M24.094 45c11.598 0 21-9.402 21-21s-9.402-21-21-21-21 9.402-21 21 9.402 21 21 21Z" fill="#8AC858"></path></mask><radialGradient id="paint0_radial" cx="0" cy="0" r="1" gradientUnits="userSpaceOnUse" gradientTransform="matrix(0 5.57802 -6.33866 0 10.278 10)"><stop stop-color="#3E671B"></stop><stop offset="1" stop-color="#77AB4F"></stop></radialGradient><linearGradient id="paint0_linear_2" x1="23.5" y1="-4.5" x2="10" y2="18" gradientUnits="userSpaceOnUse"><stop stop-color="#FFE491"></stop><stop offset=".505" stop-color="#FFC000" stop-opacity=".495"></stop><stop offset="1" stop-color="#fff" stop-opacity="0"></stop></linearGradient><linearGradient id="paint10_linear" x1="2.83" y1="19.846" x2="5.026" y2="26.633" gradientUnits="userSpaceOnUse"><stop stop-color="#DD571D"></stop><stop offset=".645" stop-color="#DF6132"></stop></linearGradient><linearGradient id="paint1_linear_2" x1="9.659" y1="15.773" x2="18.46" y2="20.493" gradientUnits="userSpaceOnUse"><stop stop-color="#DD571D"></stop><stop offset=".645" stop-color="#DF6132"></stop></linearGradient><linearGradient id="paint2_linear_2" x1="9.551" y1="16.552" x2="18.583" y2="20.803" gradientUnits="userSpaceOnUse"><stop stop-color="#DD571D"></stop><stop offset=".645" stop-color="#DF6132"></stop></linearGradient><linearGradient id="paint4_linear_2" x1="7.139" y1="18.488" x2="14.598" y2="24.775" gradientUnits="userSpaceOnUse"><stop stop-color="#DD571D"></stop><stop offset="1" stop-color="#DF6132"></stop></linearGradient><linearGradient id="paint5_linear" x1="41.782" y1="18.301" x2="9.337" y2="-7.723" gradientUnits="userSpaceOnUse"><stop stop-color="#FFE491"></stop><stop offset=".129" stop-color="#FFE491"></stop><stop offset=".222" stop-color="#FFCB7D"></stop><stop offset=".577" stop-color="#FF9333"></stop><stop offset="1" stop-color="#FFD99C"></stop></linearGradient><radialGradient id="paint3_radial_2" cx="0" cy="0" r="1" gradientUnits="userSpaceOnUse" gradientTransform="matrix(8.15404 .55622 -.33024 4.84121 14.294 14.948)"><stop stop-color="#BD350E"></stop><stop offset=".437" stop-color="#BF3710" stop-opacity=".509"></stop><stop offset=".62" stop-color="#C43E15" stop-opacity=".304"></stop><stop offset=".755" stop-color="#CE4B20" stop-opacity=".152"></stop><stop offset=".867" stop-color="#DB5C2E" stop-opacity=".027"></stop><stop offset=".891" stop-color="#DF6132" stop-opacity=".01"></stop></radialGradient><radialGradient id="paint66_radial" cx="0" cy="0" r="1" gradientUnits="userSpaceOnUse" gradientTransform="matrix(1.84356 -2.56095 8.4484 6.0818 18.636 4.431)"><stop stop-color="#E74C29"></stop><stop offset=".259" stop-color="#DE4926"></stop><stop offset=".673" stop-color="#C7421C"></stop><stop offset="1" stop-color="#B03B13"></stop></radialGradient><radialGradient id="paint3_radial" cx="0" cy="0" r="1" gradientUnits="userSpaceOnUse" gradientTransform="matrix(5.70792 .38936 -.23117 3.3889 6.105 9.364)"><stop stop-color="#BD350E"></stop><stop offset=".437" stop-color="#BF3710" stop-opacity=".509"></stop><stop offset=".62" stop-color="#C43E15" stop-opacity=".304"></stop><stop offset=".755" stop-color="#CE4B20" stop-opacity=".152"></stop><stop offset=".867" stop-color="#DB5C2E" stop-opacity=".027"></stop><stop offset=".891" stop-color="#DF6132" stop-opacity=".01"></stop></radialGradient><radialGradient id="paint5_radial" cx="0" cy="0" r="1" gradientUnits="userSpaceOnUse" gradientTransform="matrix(5.70792 .38936 -.3077 4.51068 6.105 9.364)"><stop stop-color="#BD350E"></stop><stop offset=".437" stop-color="#BF3710" stop-opacity=".509"></stop><stop offset=".62" stop-color="#C43E15" stop-opacity=".304"></stop><stop offset=".755" stop-color="#CE4B20" stop-opacity=".152"></stop><stop offset=".867" stop-color="#DB5C2E" stop-opacity=".027"></stop><stop offset=".891" stop-color="#DF6132" stop-opacity=".01"></stop></radialGradient><radialGradient id="paint6_radial" cx="0" cy="0" r="1" gradientUnits="userSpaceOnUse" gradientTransform="matrix(3.76699 0 0 5.75381 1.884 8.65)"><stop stop-color="#E05E21"></stop><stop offset=".565" stop-color="#DF602A" stop-opacity=".366"></stop><stop offset=".891" stop-color="#DF6132" stop-opacity=".01"></stop></radialGradient><radialGradient id="paint7_radial" cx="0" cy="0" r="1" gradientUnits="userSpaceOnUse" gradientTransform="matrix(3.43105 -.26644 .38005 4.89394 4.493 9.557)"><stop stop-color="#E05E21"></stop><stop offset=".565" stop-color="#DF602A" stop-opacity=".366"></stop><stop offset=".891" stop-color="#DF6132" stop-opacity=".01"></stop></radialGradient><radialGradient id="paint8_radial" cx="0" cy="0" r="1" gradientUnits="userSpaceOnUse" gradientTransform="matrix(1.9258 .69277 -.81353 2.26147 9.542 12.416)"><stop stop-color="#C13B12"></stop><stop offset=".723" stop-color="#DD5D28" stop-opacity=".414"></stop><stop offset=".994" stop-color="#DF602A" stop-opacity=".01"></stop><stop offset="1" stop-color="#DF6132" stop-opacity=".01"></stop></radialGradient><radialGradient id="paint9_radial" cx="0" cy="0" r="1" gradientUnits="userSpaceOnUse" gradientTransform="rotate(-155.017 6.478 1.388) scale(14.9871 12.8928)"><stop stop-color="#FFE491"></stop><stop offset=".129" stop-color="#FFE491"></stop><stop offset=".299" stop-color="#F9C16E"></stop><stop offset=".528" stop-color="#F19645"></stop><stop offset="1" stop-color="#EE8635"></stop></radialGradient><radialGradient id="paint10_radial" cx="0" cy="0" r="1" gradientUnits="userSpaceOnUse" gradientTransform="rotate(-54.251 6.526 -7.925) scale(2.20888 7.28696)"><stop stop-color="#E74C29"></stop><stop offset=".259" stop-color="#DE4926"></stop><stop offset=".673" stop-color="#C7421C"></stop><stop offset="1" stop-color="#B03B13"></stop></radialGradient><linearGradient id="paint0_linear" x1="-1.92" y1="12.792" x2="-.382" y2="17.543" gradientUnits="userSpaceOnUse"><stop stop-color="#DD571D"></stop><stop offset=".645" stop-color="#DF6132"></stop></linearGradient><linearGradient id="paint1_linear" x1="2.861" y1="9.941" x2="9.022" y2="13.245" gradientUnits="userSpaceOnUse"><stop stop-color="#DD571D"></stop><stop offset=".645" stop-color="#DF6132"></stop></linearGradient><linearGradient id="paint2_linear" x1="2.785" y1="10.486" x2="9.108" y2="13.462" gradientUnits="userSpaceOnUse"><stop stop-color="#DD571D"></stop><stop offset=".645" stop-color="#DF6132"></stop></linearGradient><linearGradient id="paint4_linear" x1="1.097" y1="11.842" x2="6.318" y2="16.243" gradientUnits="userSpaceOnUse"><stop stop-color="#DD571D"></stop><stop offset=".645" stop-color="#DF6132"></stop></linearGradient><radialGradient id="pkb1" cx="0" cy="0" r="1" gradientTransform="matrix(11.6095 .75457 -.56841 8.74533 13.24 18.89)" gradientUnits="userSpaceOnUse"><stop stop-color="#BD350E"></stop><stop offset=".44" stop-color="#BF3710" stop-opacity=".51"></stop><stop offset=".62" stop-color="#C43E15" stop-opacity=".3"></stop><stop offset=".76" stop-color="#CE4B20" stop-opacity=".15"></stop><stop offset=".87" stop-color="#DB5C2E" stop-opacity=".03"></stop><stop offset=".89" stop-color="#DF6132" stop-opacity=".01"></stop></radialGradient><radialGradient id="pkb2" cx="0" cy="0" r="1" gradientTransform="matrix(7.21222 0 0 10.9971 4.56 17.34)" gradientUnits="userSpaceOnUse"><stop stop-color="#E05E21"></stop><stop offset=".56" stop-color="#DF602A" stop-opacity=".37"></stop><stop offset=".89" stop-color="#DF6132" stop-opacity=".01"></stop></radialGradient><radialGradient id="pkb3" cx="0" cy="0" r="1" gradientTransform="matrix(6.56903 -.50925 .72514 9.35388 9.55 19.07)" gradientUnits="userSpaceOnUse"><stop stop-color="#E05E21"></stop><stop offset=".56" stop-color="#DF602A" stop-opacity=".37"></stop><stop offset=".89" stop-color="#DF6132" stop-opacity=".01"></stop></radialGradient><radialGradient id="pkb4" cx="0" cy="0" r="1" gradientTransform="matrix(3.6871 1.32408 -1.5528 4.32403 19.22 24.54)" gradientUnits="userSpaceOnUse"><stop stop-color="#C13B12"></stop><stop offset=".72" stop-color="#DD5D28" stop-opacity=".41"></stop><stop offset=".99" stop-color="#DF602A" stop-opacity=".01"></stop><stop offset="1" stop-color="#DF6132" stop-opacity=".01"></stop></radialGradient><radialGradient id="pkb5" cx="0" cy="0" r="1" gradientTransform="rotate(-155.06 12.96 2.95) scale(28.6853 24.6493)" gradientUnits="userSpaceOnUse"><stop stop-color="#FFE491"></stop><stop offset=".13" stop-color="#FFE491"></stop><stop offset=".3" stop-color="#F9C16E"></stop><stop offset=".53" stop-color="#F19645"></stop><stop offset="1" stop-color="#EE8635"></stop></radialGradient><radialGradient id="pkb6" cx="0" cy="0" r="1" gradientTransform="matrix(2.47103 -3.42617 11.3089 8.15624 18.457 4.628)" gradientUnits="userSpaceOnUse"><stop stop-color="#E74C29"></stop><stop offset=".26" stop-color="#DE4926"></stop><stop offset=".67" stop-color="#C7421C"></stop><stop offset="1" stop-color="#B03B13"></stop></radialGradient><linearGradient id="pkb0" x1="3.05" x2="13.03" y1="23.44" y2="31.87" gradientUnits="userSpaceOnUse"><stop stop-color="#DD571D"></stop><stop offset=".65" stop-color="#DF6132"></stop></linearGradient><linearGradient id="paint-preloader_linear" x1="12.083" y1="2.75" x2="14.417" y2="8" gradientUnits="userSpaceOnUse"><stop stop-color="#BDBDBF"></stop><stop offset=".526" stop-color="#BDBDBF" stop-opacity=".6"></stop><stop offset="1" stop-color="#BDBDBF" stop-opacity="0"></stop></linearGradient><circle id="loadingCircle" cx="50" cy="50" r="50"></circle><mask id="loadingCircleMask" x="0" y="0" width="100" height="100" fill="#fff"><use xlink:href="#loadingCircle"></use></mask><linearGradient id="telegram-logo-16-a" x1="10.672" y1="2.672" x2="6.672" y2="12" gradientUnits="userSpaceOnUse"><stop stop-color="#37AEE2"></stop><stop offset="1" stop-color="#1E96C8"></stop></linearGradient><linearGradient id="telegram-logo-16-b" x1="9.003" y1="8.001" x2="10.251" y2="10.845" gradientUnits="userSpaceOnUse"><stop stop-color="#EFF7FC"></stop><stop offset="1" stop-color="#fff"></stop></linearGradient><linearGradient id="telegram_paint11_linear" x1="10.672" y1="2.672" x2="6.672" y2="12" gradientUnits="userSpaceOnUse"><stop stop-color="#37AEE2"></stop><stop offset="1" stop-color="#1E96C8"></stop></linearGradient><linearGradient id="telegram_paint1_linear" x1="9.003" y1="8.001" x2="10.252" y2="10.845" gradientUnits="userSpaceOnUse"><stop stop-color="#EFF7FC"></stop><stop offset="1" stop-color="#fff"></stop></linearGradient><clipPath id="clip1"><path fill="#fff" transform="translate(6 6)" d="M0 0h12v12H0z"></path></clipPath></defs>
    <symbol id="icon--emotions__surprised" viewBox="0 0 32 32"><path d="M3.465 10.652C3.919 7.779 5.074 2.156 16 2.156c11.388 0 12.147 5.688 12.649 8.496-4.522 4.38-25.184 0-25.184 0Z" fill="#FCD996"></path><path d="M29.206 16.568c-.133 8.36-5.773 12.729-13.164 12.729s-13.25-5.22-13.254-12.503C2.784 4.668 8.606 2.924 15.997 2.924c7.39 0 13.4 1.569 13.209 13.644Z" fill="#F7B259"></path><path d="M3.266 20.274S7.112 26.75 16 26.75s12.734-6.476 12.734-6.476-1.38 9.57-12.691 9.57c-11.312 0-12.777-9.57-12.777-9.57Z" fill="#D17715"></path><path d="M13.733 23.218c-.088 1.303 1.038 2.657 2.646 2.657.958 0 2.604-.863 2.578-2.817-.025-1.914-4.876.02-4.876.02" fill="#FCD996"></path><path d="M16.31 25.398c1.543 0 2.794-1.772 2.794-3.958s-1.251-3.958-2.794-3.958c-1.543 0-2.794 1.772-2.794 3.958s1.25 3.958 2.794 3.958Z" fill="#6A3614"></path><path d="M16.115 23.799c-.89-.03-1.714-.584-1.964-1.44-.11-.372-.111-.761.144-1.07.407-.492 1.573-.382 1.71.134.139.52-.323.906.302.907.384 0 .105-.515.18-.805.135-.51.85-.8 1.424-.776.573.024 1.085 1.13.34 2.317-.4.639-1.348.759-2.136.733Z" fill="#512A10"></path><path d="M16.428 23.266c.115-.128.53-.532 1.118-.236.587.296.484 1.783-.513 2.039-.997.256-1.853-.008-2.106-.741-.253-.733.182-1.27.629-1.301.357-.026.677.15.872.239Z" fill="#C31517"></path><path d="M11.209 6.062c.799-.36.96-.594.746-1.25-.215-.656-.59-1.69-1.656-1.191-1.067.498-3.112 1.652-4.23 4.356-.638 1.544.059 1.574.355 1.822s.744-.337 1.26-1.074c.66-.943 1.707-1.844 3.525-2.663ZM22.823 3.98c-.781-.544-1.21-.153-1.512.182-.302.335-.812 1.468-.3 1.83.512.364 1.595.915 2.79 2.246.789.879.848 1.663 1.314 1.523.466-.14.804-.88.566-1.762-.24-.882-.768-2.562-2.858-4.018ZM10.17 10.309c1.485-.075 1.74 3.952 1.496 5.583-.245 1.63-1.526 2.217-3.21 2.144-1.28-.056-2.062-1-1.932-2.493.13-1.493 1.275-5.114 3.647-5.234ZM22.629 10.472c-2.2-.01-2.611 6.277-1.204 6.996 1.407.719 3.714.548 4.217-.703.503-1.251-.703-6.284-3.013-6.293Z" fill="#6A3614"></path><path d="M5.959 9.458s.47.178.85-.295 1.28-1.935 2.766-2.897c1.485-.962 1.858-1.076 2.047-1.376.189-.3.049-.773.049-.773s.522.773.4 1.329c-.121.557-.973.7-1.711 1.116-.738.415-1.876 1.263-2.331 1.838-.455.575-.922 1.245-1.294 1.46-.372.215-.637-.181-.776-.402ZM21.234 4.268s-.298.789.449 1.309c.747.52 2.128 1.54 2.73 2.398.604.859.629 1.337.877 1.348.248.01.378-.17.378-.17s-.126.52-.532.62c-.406.1-.52-.261-.93-.887-.408-.626-1.766-1.904-2.507-2.356-.741-.452-.971-.665-.984-1.03-.013-.363.32-1.034.519-1.232ZM20.628 14.5s.14 1.983 1.446 2.447c1.305.464 2.578.144 3.073-.224.495-.367.578-1.154.578-1.154s.263 1.045-.457 1.737c-.72.692-2.64.88-3.806.204-1.167-.678-.866-2.53-.834-3.01ZM11.726 14.31s-.154 2.093-1.388 2.699c-1.234.606-2.663.593-3.26-.195-.466-.617-.515-1.591-.515-1.591s-.282 1.124.272 2.05c.554.926 1.71.93 2.686.775.975-.155 1.814-.752 2.082-1.628.268-.876.123-2.11.123-2.11Z" fill="#512A10"></path><path d="M9.577 12.349c.813-.238 1.286 2.73.065 3.322-1.221.592-1.645-.071-1.451-.891.194-.818.695-2.23 1.386-2.431ZM22.976 12.142c.656-.195 2.07 3.134.676 3.58-1.394.448-1.72-.208-1.668-1.022.05-.815.276-2.346.992-2.558Z" fill="#B2622B"></path><path d="M9.296 12.477c.206.005-.117.614-.254.863s-.412.289-.45.142c-.038-.147.287-1.015.704-1.005ZM22.5 12.357c.262-.088.002.833-.062 1.09-.064.256-.38.528-.48.265-.096-.264.174-1.23.543-1.355Z" fill="#fff"></path></symbol>
    <use xlink:href="#icon--emotions__surprised"/>
</svg>
