<svg xmlns="http://www.w3.org/2000/svg" xmlns:xlink="http://www.w3.org/1999/xlink">
    <defs><linearGradient id="B" x1="10" y1="1.043" x2="10" y2="22.435" gradientUnits="userSpaceOnUse"><stop stop-color="#fff"></stop><stop offset="1" stop-color="#fff" stop-opacity="0"></stop></linearGradient><linearGradient id="A" x1="18" y1="2" x2="18" y2="48.452" gradientUnits="userSpaceOnUse"><stop stop-color="#fff"></stop><stop offset="1" stop-color="#fff" stop-opacity="0"></stop></linearGradient><clipPath id="eye-crossed-a"><path fill="#fff" d="M0 0h16v16H0z"></path></clipPath><clipPath id="clip0"><path fill="#fff" d="M0 0h16v16H0z"></path></clipPath><linearGradient id="paint_angry_linear" x1="16" y1="4.666" x2="16" y2="24.261" gradientUnits="userSpaceOnUse"><stop stop-color="#F7B259"></stop><stop offset="1" stop-color="#EE3323"></stop></linearGradient><linearGradient id="paint_sad_linear" x1="16" y1="3.937" x2="16" y2="25.501" gradientUnits="userSpaceOnUse"><stop stop-color="#5EAEE5"></stop><stop offset=".455" stop-color="#AAB09F"></stop><stop offset=".823" stop-color="#E2B16D"></stop><stop offset="1" stop-color="#F7B259"></stop></linearGradient><rect id="a" width="36" height="20" rx="4"></rect><mask id="b" x="0" y="0" width="36" height="20" fill="#fff"><use xlink:href="#a"></use></mask><clipPath id="clip0comm"><path fill="#fff" transform="translate(.5)" d="M0 0h16v16H0z"></path></clipPath><mask id="mask0" style="mask-type:alpha" maskUnits="userSpaceOnUse" x="3" y="3" width="43" height="42"><path d="M24.094 45c11.598 0 21-9.402 21-21s-9.402-21-21-21-21 9.402-21 21 9.402 21 21 21Z" fill="#8AC858"></path></mask><radialGradient id="paint0_radial" cx="0" cy="0" r="1" gradientUnits="userSpaceOnUse" gradientTransform="matrix(0 5.57802 -6.33866 0 10.278 10)"><stop stop-color="#3E671B"></stop><stop offset="1" stop-color="#77AB4F"></stop></radialGradient><linearGradient id="paint0_linear_2" x1="23.5" y1="-4.5" x2="10" y2="18" gradientUnits="userSpaceOnUse"><stop stop-color="#FFE491"></stop><stop offset=".505" stop-color="#FFC000" stop-opacity=".495"></stop><stop offset="1" stop-color="#fff" stop-opacity="0"></stop></linearGradient><linearGradient id="paint10_linear" x1="2.83" y1="19.846" x2="5.026" y2="26.633" gradientUnits="userSpaceOnUse"><stop stop-color="#DD571D"></stop><stop offset=".645" stop-color="#DF6132"></stop></linearGradient><linearGradient id="paint1_linear_2" x1="9.659" y1="15.773" x2="18.46" y2="20.493" gradientUnits="userSpaceOnUse"><stop stop-color="#DD571D"></stop><stop offset=".645" stop-color="#DF6132"></stop></linearGradient><linearGradient id="paint2_linear_2" x1="9.551" y1="16.552" x2="18.583" y2="20.803" gradientUnits="userSpaceOnUse"><stop stop-color="#DD571D"></stop><stop offset=".645" stop-color="#DF6132"></stop></linearGradient><linearGradient id="paint4_linear_2" x1="7.139" y1="18.488" x2="14.598" y2="24.775" gradientUnits="userSpaceOnUse"><stop stop-color="#DD571D"></stop><stop offset="1" stop-color="#DF6132"></stop></linearGradient><linearGradient id="paint5_linear" x1="41.782" y1="18.301" x2="9.337" y2="-7.723" gradientUnits="userSpaceOnUse"><stop stop-color="#FFE491"></stop><stop offset=".129" stop-color="#FFE491"></stop><stop offset=".222" stop-color="#FFCB7D"></stop><stop offset=".577" stop-color="#FF9333"></stop><stop offset="1" stop-color="#FFD99C"></stop></linearGradient><radialGradient id="paint3_radial_2" cx="0" cy="0" r="1" gradientUnits="userSpaceOnUse" gradientTransform="matrix(8.15404 .55622 -.33024 4.84121 14.294 14.948)"><stop stop-color="#BD350E"></stop><stop offset=".437" stop-color="#BF3710" stop-opacity=".509"></stop><stop offset=".62" stop-color="#C43E15" stop-opacity=".304"></stop><stop offset=".755" stop-color="#CE4B20" stop-opacity=".152"></stop><stop offset=".867" stop-color="#DB5C2E" stop-opacity=".027"></stop><stop offset=".891" stop-color="#DF6132" stop-opacity=".01"></stop></radialGradient><radialGradient id="paint66_radial" cx="0" cy="0" r="1" gradientUnits="userSpaceOnUse" gradientTransform="matrix(1.84356 -2.56095 8.4484 6.0818 18.636 4.431)"><stop stop-color="#E74C29"></stop><stop offset=".259" stop-color="#DE4926"></stop><stop offset=".673" stop-color="#C7421C"></stop><stop offset="1" stop-color="#B03B13"></stop></radialGradient><radialGradient id="paint3_radial" cx="0" cy="0" r="1" gradientUnits="userSpaceOnUse" gradientTransform="matrix(5.70792 .38936 -.23117 3.3889 6.105 9.364)"><stop stop-color="#BD350E"></stop><stop offset=".437" stop-color="#BF3710" stop-opacity=".509"></stop><stop offset=".62" stop-color="#C43E15" stop-opacity=".304"></stop><stop offset=".755" stop-color="#CE4B20" stop-opacity=".152"></stop><stop offset=".867" stop-color="#DB5C2E" stop-opacity=".027"></stop><stop offset=".891" stop-color="#DF6132" stop-opacity=".01"></stop></radialGradient><radialGradient id="paint5_radial" cx="0" cy="0" r="1" gradientUnits="userSpaceOnUse" gradientTransform="matrix(5.70792 .38936 -.3077 4.51068 6.105 9.364)"><stop stop-color="#BD350E"></stop><stop offset=".437" stop-color="#BF3710" stop-opacity=".509"></stop><stop offset=".62" stop-color="#C43E15" stop-opacity=".304"></stop><stop offset=".755" stop-color="#CE4B20" stop-opacity=".152"></stop><stop offset=".867" stop-color="#DB5C2E" stop-opacity=".027"></stop><stop offset=".891" stop-color="#DF6132" stop-opacity=".01"></stop></radialGradient><radialGradient id="paint6_radial" cx="0" cy="0" r="1" gradientUnits="userSpaceOnUse" gradientTransform="matrix(3.76699 0 0 5.75381 1.884 8.65)"><stop stop-color="#E05E21"></stop><stop offset=".565" stop-color="#DF602A" stop-opacity=".366"></stop><stop offset=".891" stop-color="#DF6132" stop-opacity=".01"></stop></radialGradient><radialGradient id="paint7_radial" cx="0" cy="0" r="1" gradientUnits="userSpaceOnUse" gradientTransform="matrix(3.43105 -.26644 .38005 4.89394 4.493 9.557)"><stop stop-color="#E05E21"></stop><stop offset=".565" stop-color="#DF602A" stop-opacity=".366"></stop><stop offset=".891" stop-color="#DF6132" stop-opacity=".01"></stop></radialGradient><radialGradient id="paint8_radial" cx="0" cy="0" r="1" gradientUnits="userSpaceOnUse" gradientTransform="matrix(1.9258 .69277 -.81353 2.26147 9.542 12.416)"><stop stop-color="#C13B12"></stop><stop offset=".723" stop-color="#DD5D28" stop-opacity=".414"></stop><stop offset=".994" stop-color="#DF602A" stop-opacity=".01"></stop><stop offset="1" stop-color="#DF6132" stop-opacity=".01"></stop></radialGradient><radialGradient id="paint9_radial" cx="0" cy="0" r="1" gradientUnits="userSpaceOnUse" gradientTransform="rotate(-155.017 6.478 1.388) scale(14.9871 12.8928)"><stop stop-color="#FFE491"></stop><stop offset=".129" stop-color="#FFE491"></stop><stop offset=".299" stop-color="#F9C16E"></stop><stop offset=".528" stop-color="#F19645"></stop><stop offset="1" stop-color="#EE8635"></stop></radialGradient><radialGradient id="paint10_radial" cx="0" cy="0" r="1" gradientUnits="userSpaceOnUse" gradientTransform="rotate(-54.251 6.526 -7.925) scale(2.20888 7.28696)"><stop stop-color="#E74C29"></stop><stop offset=".259" stop-color="#DE4926"></stop><stop offset=".673" stop-color="#C7421C"></stop><stop offset="1" stop-color="#B03B13"></stop></radialGradient><linearGradient id="paint0_linear" x1="-1.92" y1="12.792" x2="-.382" y2="17.543" gradientUnits="userSpaceOnUse"><stop stop-color="#DD571D"></stop><stop offset=".645" stop-color="#DF6132"></stop></linearGradient><linearGradient id="paint1_linear" x1="2.861" y1="9.941" x2="9.022" y2="13.245" gradientUnits="userSpaceOnUse"><stop stop-color="#DD571D"></stop><stop offset=".645" stop-color="#DF6132"></stop></linearGradient><linearGradient id="paint2_linear" x1="2.785" y1="10.486" x2="9.108" y2="13.462" gradientUnits="userSpaceOnUse"><stop stop-color="#DD571D"></stop><stop offset=".645" stop-color="#DF6132"></stop></linearGradient><linearGradient id="paint4_linear" x1="1.097" y1="11.842" x2="6.318" y2="16.243" gradientUnits="userSpaceOnUse"><stop stop-color="#DD571D"></stop><stop offset=".645" stop-color="#DF6132"></stop></linearGradient><radialGradient id="pkb1" cx="0" cy="0" r="1" gradientTransform="matrix(11.6095 .75457 -.56841 8.74533 13.24 18.89)" gradientUnits="userSpaceOnUse"><stop stop-color="#BD350E"></stop><stop offset=".44" stop-color="#BF3710" stop-opacity=".51"></stop><stop offset=".62" stop-color="#C43E15" stop-opacity=".3"></stop><stop offset=".76" stop-color="#CE4B20" stop-opacity=".15"></stop><stop offset=".87" stop-color="#DB5C2E" stop-opacity=".03"></stop><stop offset=".89" stop-color="#DF6132" stop-opacity=".01"></stop></radialGradient><radialGradient id="pkb2" cx="0" cy="0" r="1" gradientTransform="matrix(7.21222 0 0 10.9971 4.56 17.34)" gradientUnits="userSpaceOnUse"><stop stop-color="#E05E21"></stop><stop offset=".56" stop-color="#DF602A" stop-opacity=".37"></stop><stop offset=".89" stop-color="#DF6132" stop-opacity=".01"></stop></radialGradient><radialGradient id="pkb3" cx="0" cy="0" r="1" gradientTransform="matrix(6.56903 -.50925 .72514 9.35388 9.55 19.07)" gradientUnits="userSpaceOnUse"><stop stop-color="#E05E21"></stop><stop offset=".56" stop-color="#DF602A" stop-opacity=".37"></stop><stop offset=".89" stop-color="#DF6132" stop-opacity=".01"></stop></radialGradient><radialGradient id="pkb4" cx="0" cy="0" r="1" gradientTransform="matrix(3.6871 1.32408 -1.5528 4.32403 19.22 24.54)" gradientUnits="userSpaceOnUse"><stop stop-color="#C13B12"></stop><stop offset=".72" stop-color="#DD5D28" stop-opacity=".41"></stop><stop offset=".99" stop-color="#DF602A" stop-opacity=".01"></stop><stop offset="1" stop-color="#DF6132" stop-opacity=".01"></stop></radialGradient><radialGradient id="pkb5" cx="0" cy="0" r="1" gradientTransform="rotate(-155.06 12.96 2.95) scale(28.6853 24.6493)" gradientUnits="userSpaceOnUse"><stop stop-color="#FFE491"></stop><stop offset=".13" stop-color="#FFE491"></stop><stop offset=".3" stop-color="#F9C16E"></stop><stop offset=".53" stop-color="#F19645"></stop><stop offset="1" stop-color="#EE8635"></stop></radialGradient><radialGradient id="pkb6" cx="0" cy="0" r="1" gradientTransform="matrix(2.47103 -3.42617 11.3089 8.15624 18.457 4.628)" gradientUnits="userSpaceOnUse"><stop stop-color="#E74C29"></stop><stop offset=".26" stop-color="#DE4926"></stop><stop offset=".67" stop-color="#C7421C"></stop><stop offset="1" stop-color="#B03B13"></stop></radialGradient><linearGradient id="pkb0" x1="3.05" x2="13.03" y1="23.44" y2="31.87" gradientUnits="userSpaceOnUse"><stop stop-color="#DD571D"></stop><stop offset=".65" stop-color="#DF6132"></stop></linearGradient><linearGradient id="paint-preloader_linear" x1="12.083" y1="2.75" x2="14.417" y2="8" gradientUnits="userSpaceOnUse"><stop stop-color="#BDBDBF"></stop><stop offset=".526" stop-color="#BDBDBF" stop-opacity=".6"></stop><stop offset="1" stop-color="#BDBDBF" stop-opacity="0"></stop></linearGradient><circle id="loadingCircle" cx="50" cy="50" r="50"></circle><mask id="loadingCircleMask" x="0" y="0" width="100" height="100" fill="#fff"><use xlink:href="#loadingCircle"></use></mask><linearGradient id="telegram-logo-16-a" x1="10.672" y1="2.672" x2="6.672" y2="12" gradientUnits="userSpaceOnUse"><stop stop-color="#37AEE2"></stop><stop offset="1" stop-color="#1E96C8"></stop></linearGradient><linearGradient id="telegram-logo-16-b" x1="9.003" y1="8.001" x2="10.251" y2="10.845" gradientUnits="userSpaceOnUse"><stop stop-color="#EFF7FC"></stop><stop offset="1" stop-color="#fff"></stop></linearGradient><linearGradient id="telegram_paint11_linear" x1="10.672" y1="2.672" x2="6.672" y2="12" gradientUnits="userSpaceOnUse"><stop stop-color="#37AEE2"></stop><stop offset="1" stop-color="#1E96C8"></stop></linearGradient><linearGradient id="telegram_paint1_linear" x1="9.003" y1="8.001" x2="10.252" y2="10.845" gradientUnits="userSpaceOnUse"><stop stop-color="#EFF7FC"></stop><stop offset="1" stop-color="#fff"></stop></linearGradient><clipPath id="clip1"><path fill="#fff" transform="translate(6 6)" d="M0 0h12v12H0z"></path></clipPath></defs>
    <symbol id="icon--emotions__kind" viewBox="0 0 32 32"><path d="M3.465 10.652C3.919 7.779 5.074 2.156 16 2.156c11.388 0 12.147 5.688 12.649 8.496-4.522 4.38-25.184 0-25.184 0Z" fill="#FCD996"></path><path d="M29.206 16.568c-.133 8.36-5.773 12.729-13.164 12.729s-13.25-5.22-13.254-12.503C2.784 4.668 8.606 2.924 15.997 2.924c7.39 0 13.4 1.569 13.209 13.644Z" fill="#F7B259"></path><path d="M3.266 20.274S7.112 26.75 16 26.75s12.734-6.476 12.734-6.476-1.38 9.57-12.691 9.57c-11.312 0-12.777-9.57-12.777-9.57Z" fill="#D17715"></path><path d="M11.313 7.382c-.466-.1-1.494 1.508-3.414 2.642-1.92 1.134-2.8 1.147-2.86 1.562-.061.416-.254 1.349.087 1.342.34-.007 3.26-.43 5.085-1.492 1.825-1.063 1.704-1.59 1.713-2.041.009-.451-.2-1.924-.611-2.013Z" fill="#6A3614"></path><path d="M4.96 12.098s-.192.81.144.838c.336.028 3.229-.462 4.779-1.264 1.55-.803 1.904-1.41 2-1.702.096-.294.044-1.097-.05-1.408 0 0-.026.834-.567 1.275-.543.44-1.6 1.358-3.604 2.073-2.004.715-2.387.58-2.49.559-.165-.035-.211-.371-.211-.371Z" fill="#512A10"></path><path d="M20.687 7.382c.466-.1 1.494 1.508 3.414 2.642 1.92 1.134 2.799 1.147 2.86 1.562.06.415.254 1.349-.087 1.342-.341-.007-3.26-.43-5.085-1.492-1.825-1.063-1.704-1.59-1.713-2.041-.01-.451.2-1.924.61-2.013Z" fill="#6A3614"></path><path d="M27.039 12.098s.193.81-.143.838c-.336.028-3.23-.462-4.78-1.264-1.55-.802-1.903-1.41-2-1.702-.095-.294-.043-1.097.05-1.408 0 0 .027.834.568 1.275.542.44 1.599 1.358 3.603 2.073 2.004.715 2.387.58 2.49.559.166-.035.212-.371.212-.371Z" fill="#512A10"></path><path d="M5.692 19.274c-1.054-.12-1.396.703-.773 1.383.623.679 4.72.89 4.997.06.277-.83-.557-1.242-1.468-1.307-.911-.065-2.116-.063-2.756-.136ZM26.526 19.139c1.044-.141 1.4.674.793 1.366-.606.692-4.673.988-4.963.164-.29-.824.53-1.253 1.434-1.337.903-.084 2.102-.107 2.736-.193Z" fill="#FF7373"></path><path d="M11.798 14.529c-.612-.025-.752 2.055-2.904 1.917-2.151-.138-2.144-1.696-2.724-1.834-.58-.138-1.683-.304-1.738.11-.055.414.745 3.504 4.8 3.449 4.057-.055 4.415-3.256 4.222-3.421-.193-.166-.966-.193-1.656-.221ZM18.944 14.529c-.692.058-.11 1.904 1.076 2.759 1.186.855 3.752 1.407 5.49.469 1.738-.938 2.318-3.09 1.959-3.256-.36-.166-1.766.055-1.904.248-.138.193-.248 1.683-2.456 1.655-2.428-.03-2.317-1.821-2.814-1.848-.497-.027-1.02-.055-1.351-.027Z" fill="#6A3614"></path><path d="M4.435 14.739c-.031.32.517 2.42 2.7 3.166 2.183.745 4.314.103 5.204-.693.89-.797 1.107-1.707 1.148-1.997.032-.225.083-.427-.155-.538-.277.948-.414 1.5-1.48 2.276-1.065.776-3.237 1.097-4.665.393-1.427-.703-2.555-1.976-2.752-2.607ZM21.092 17.357c1.976.724 4.1.42 5.11-.528.849-.797 1.139-1.562 1.336-2.255.093.197-.041 1.252-.766 2.183-.725.93-1.811 1.593-3.86 1.53-2.048-.061-3.59-1.22-4.034-2.327-.445-1.107-.2-1.286-.083-1.386.052.445.32 2.059 2.297 2.783Z" fill="#512A10"></path><path d="M6.82 16.884s.83.676 2.013.719c1.182.043 1.545-.218 1.545-.218s-.54.219-1.738.017c-.845-.142-1.914-.887-1.82-.518ZM21.062 17.043s.874.619 2.055.583c1.182-.036 1.527-.321 1.527-.321s-.57.217-1.733.133c-.89-.064-1.968-.757-1.85-.395Z" fill="#B2622B"></path><path d="M11.059 20.45s-.403.555-.05 1.462c.353.907 1.914 3.173 4.886 3.224 2.972.05 5.994-2.67 5.238-4.987 0 0-1.108 1.864-2.015 2.569-.907.705-2.015 1.41-2.62 1.31-.603-.101-2.87-1.108-3.071-1.31a648.413 648.413 0 0 0-2.368-2.267Z" fill="#FDDC9A"></path><path d="M11.546 19.998c-.756.189-.638.94-.302 1.645.336.705 1.679 3.089 5.17 3.022 3.493-.067 4.736-3.627 4.736-4.332 0-.705-1.444-.705-1.746-.302-.302.403-.57 3.489-3.157 3.459-2.888-.034-2.955-3.224-3.56-3.46-.604-.233-.873-.1-1.141-.032Z" fill="#6A3614"></path><path d="M16.065 2.03c-5.104 0-13.667.39-13.667 3 0 .835.878 1.44 2.234 1.88 2.888.938 7.959 1.12 11.433 1.12 3.483 0 8.573-.182 11.457-1.127 1.343-.44 2.21-1.043 2.21-1.872 0-2.61-8.563-3-13.667-3Zm0 4c-4.852 0-8.256-.406-10.138-.821-.271-.06-.51-.12-.717-.178.328-.093.736-.188 1.22-.282l.005-.001C8.228 3.265 11.15 2.156 16 2.156c5.057 0 8.015 1.123 9.788 2.616.436.086.829.174 1.132.259-.194.055-.42.11-.67.166-1.87.42-5.287.834-10.185.834Z" fill="#00BDF2"></path><path d="M28.066 3.364C25.324 2.242 19.783 2.03 16.065 2.03c-3.49 0-8.595.183-11.476 1.133-.2.076-1.152.47-.73.988.47.577 1.35.879 1.35.879.329-.093.737-.188 1.222-.282l.004-.001C8.228 3.265 11.15 2.156 16 2.156c5.057 0 8.015 1.123 9.788 2.616.436.086.829.174 1.132.259 2.259-.811 1.36-1.525 1.146-1.667Z" fill="#009DDB"></path></symbol>
    <use xlink:href="#icon--emotions__kind"/>
</svg>
