<svg xmlns="http://www.w3.org/2000/svg" xmlns:xlink="http://www.w3.org/1999/xlink">
    <defs><linearGradient id="B" x1="10" y1="1.043" x2="10" y2="22.435" gradientUnits="userSpaceOnUse"><stop stop-color="#fff"></stop><stop offset="1" stop-color="#fff" stop-opacity="0"></stop></linearGradient><linearGradient id="A" x1="18" y1="2" x2="18" y2="48.452" gradientUnits="userSpaceOnUse"><stop stop-color="#fff"></stop><stop offset="1" stop-color="#fff" stop-opacity="0"></stop></linearGradient><clipPath id="eye-crossed-a"><path fill="#fff" d="M0 0h16v16H0z"></path></clipPath><clipPath id="clip0"><path fill="#fff" d="M0 0h16v16H0z"></path></clipPath><linearGradient id="paint_angry_linear" x1="16" y1="4.666" x2="16" y2="24.261" gradientUnits="userSpaceOnUse"><stop stop-color="#F7B259"></stop><stop offset="1" stop-color="#EE3323"></stop></linearGradient><linearGradient id="paint_sad_linear" x1="16" y1="3.937" x2="16" y2="25.501" gradientUnits="userSpaceOnUse"><stop stop-color="#5EAEE5"></stop><stop offset=".455" stop-color="#AAB09F"></stop><stop offset=".823" stop-color="#E2B16D"></stop><stop offset="1" stop-color="#F7B259"></stop></linearGradient><rect id="a" width="36" height="20" rx="4"></rect><mask id="b" x="0" y="0" width="36" height="20" fill="#fff"><use xlink:href="#a"></use></mask><clipPath id="clip0comm"><path fill="#fff" transform="translate(.5)" d="M0 0h16v16H0z"></path></clipPath><mask id="mask0" style="mask-type:alpha" maskUnits="userSpaceOnUse" x="3" y="3" width="43" height="42"><path d="M24.094 45c11.598 0 21-9.402 21-21s-9.402-21-21-21-21 9.402-21 21 9.402 21 21 21Z" fill="#8AC858"></path></mask><radialGradient id="paint0_radial" cx="0" cy="0" r="1" gradientUnits="userSpaceOnUse" gradientTransform="matrix(0 5.57802 -6.33866 0 10.278 10)"><stop stop-color="#3E671B"></stop><stop offset="1" stop-color="#77AB4F"></stop></radialGradient><linearGradient id="paint0_linear_2" x1="23.5" y1="-4.5" x2="10" y2="18" gradientUnits="userSpaceOnUse"><stop stop-color="#FFE491"></stop><stop offset=".505" stop-color="#FFC000" stop-opacity=".495"></stop><stop offset="1" stop-color="#fff" stop-opacity="0"></stop></linearGradient><linearGradient id="paint10_linear" x1="2.83" y1="19.846" x2="5.026" y2="26.633" gradientUnits="userSpaceOnUse"><stop stop-color="#DD571D"></stop><stop offset=".645" stop-color="#DF6132"></stop></linearGradient><linearGradient id="paint1_linear_2" x1="9.659" y1="15.773" x2="18.46" y2="20.493" gradientUnits="userSpaceOnUse"><stop stop-color="#DD571D"></stop><stop offset=".645" stop-color="#DF6132"></stop></linearGradient><linearGradient id="paint2_linear_2" x1="9.551" y1="16.552" x2="18.583" y2="20.803" gradientUnits="userSpaceOnUse"><stop stop-color="#DD571D"></stop><stop offset=".645" stop-color="#DF6132"></stop></linearGradient><linearGradient id="paint4_linear_2" x1="7.139" y1="18.488" x2="14.598" y2="24.775" gradientUnits="userSpaceOnUse"><stop stop-color="#DD571D"></stop><stop offset="1" stop-color="#DF6132"></stop></linearGradient><linearGradient id="paint5_linear" x1="41.782" y1="18.301" x2="9.337" y2="-7.723" gradientUnits="userSpaceOnUse"><stop stop-color="#FFE491"></stop><stop offset=".129" stop-color="#FFE491"></stop><stop offset=".222" stop-color="#FFCB7D"></stop><stop offset=".577" stop-color="#FF9333"></stop><stop offset="1" stop-color="#FFD99C"></stop></linearGradient><radialGradient id="paint3_radial_2" cx="0" cy="0" r="1" gradientUnits="userSpaceOnUse" gradientTransform="matrix(8.15404 .55622 -.33024 4.84121 14.294 14.948)"><stop stop-color="#BD350E"></stop><stop offset=".437" stop-color="#BF3710" stop-opacity=".509"></stop><stop offset=".62" stop-color="#C43E15" stop-opacity=".304"></stop><stop offset=".755" stop-color="#CE4B20" stop-opacity=".152"></stop><stop offset=".867" stop-color="#DB5C2E" stop-opacity=".027"></stop><stop offset=".891" stop-color="#DF6132" stop-opacity=".01"></stop></radialGradient><radialGradient id="paint66_radial" cx="0" cy="0" r="1" gradientUnits="userSpaceOnUse" gradientTransform="matrix(1.84356 -2.56095 8.4484 6.0818 18.636 4.431)"><stop stop-color="#E74C29"></stop><stop offset=".259" stop-color="#DE4926"></stop><stop offset=".673" stop-color="#C7421C"></stop><stop offset="1" stop-color="#B03B13"></stop></radialGradient><radialGradient id="paint3_radial" cx="0" cy="0" r="1" gradientUnits="userSpaceOnUse" gradientTransform="matrix(5.70792 .38936 -.23117 3.3889 6.105 9.364)"><stop stop-color="#BD350E"></stop><stop offset=".437" stop-color="#BF3710" stop-opacity=".509"></stop><stop offset=".62" stop-color="#C43E15" stop-opacity=".304"></stop><stop offset=".755" stop-color="#CE4B20" stop-opacity=".152"></stop><stop offset=".867" stop-color="#DB5C2E" stop-opacity=".027"></stop><stop offset=".891" stop-color="#DF6132" stop-opacity=".01"></stop></radialGradient><radialGradient id="paint5_radial" cx="0" cy="0" r="1" gradientUnits="userSpaceOnUse" gradientTransform="matrix(5.70792 .38936 -.3077 4.51068 6.105 9.364)"><stop stop-color="#BD350E"></stop><stop offset=".437" stop-color="#BF3710" stop-opacity=".509"></stop><stop offset=".62" stop-color="#C43E15" stop-opacity=".304"></stop><stop offset=".755" stop-color="#CE4B20" stop-opacity=".152"></stop><stop offset=".867" stop-color="#DB5C2E" stop-opacity=".027"></stop><stop offset=".891" stop-color="#DF6132" stop-opacity=".01"></stop></radialGradient><radialGradient id="paint6_radial" cx="0" cy="0" r="1" gradientUnits="userSpaceOnUse" gradientTransform="matrix(3.76699 0 0 5.75381 1.884 8.65)"><stop stop-color="#E05E21"></stop><stop offset=".565" stop-color="#DF602A" stop-opacity=".366"></stop><stop offset=".891" stop-color="#DF6132" stop-opacity=".01"></stop></radialGradient><radialGradient id="paint7_radial" cx="0" cy="0" r="1" gradientUnits="userSpaceOnUse" gradientTransform="matrix(3.43105 -.26644 .38005 4.89394 4.493 9.557)"><stop stop-color="#E05E21"></stop><stop offset=".565" stop-color="#DF602A" stop-opacity=".366"></stop><stop offset=".891" stop-color="#DF6132" stop-opacity=".01"></stop></radialGradient><radialGradient id="paint8_radial" cx="0" cy="0" r="1" gradientUnits="userSpaceOnUse" gradientTransform="matrix(1.9258 .69277 -.81353 2.26147 9.542 12.416)"><stop stop-color="#C13B12"></stop><stop offset=".723" stop-color="#DD5D28" stop-opacity=".414"></stop><stop offset=".994" stop-color="#DF602A" stop-opacity=".01"></stop><stop offset="1" stop-color="#DF6132" stop-opacity=".01"></stop></radialGradient><radialGradient id="paint9_radial" cx="0" cy="0" r="1" gradientUnits="userSpaceOnUse" gradientTransform="rotate(-155.017 6.478 1.388) scale(14.9871 12.8928)"><stop stop-color="#FFE491"></stop><stop offset=".129" stop-color="#FFE491"></stop><stop offset=".299" stop-color="#F9C16E"></stop><stop offset=".528" stop-color="#F19645"></stop><stop offset="1" stop-color="#EE8635"></stop></radialGradient><radialGradient id="paint10_radial" cx="0" cy="0" r="1" gradientUnits="userSpaceOnUse" gradientTransform="rotate(-54.251 6.526 -7.925) scale(2.20888 7.28696)"><stop stop-color="#E74C29"></stop><stop offset=".259" stop-color="#DE4926"></stop><stop offset=".673" stop-color="#C7421C"></stop><stop offset="1" stop-color="#B03B13"></stop></radialGradient><linearGradient id="paint0_linear" x1="-1.92" y1="12.792" x2="-.382" y2="17.543" gradientUnits="userSpaceOnUse"><stop stop-color="#DD571D"></stop><stop offset=".645" stop-color="#DF6132"></stop></linearGradient><linearGradient id="paint1_linear" x1="2.861" y1="9.941" x2="9.022" y2="13.245" gradientUnits="userSpaceOnUse"><stop stop-color="#DD571D"></stop><stop offset=".645" stop-color="#DF6132"></stop></linearGradient><linearGradient id="paint2_linear" x1="2.785" y1="10.486" x2="9.108" y2="13.462" gradientUnits="userSpaceOnUse"><stop stop-color="#DD571D"></stop><stop offset=".645" stop-color="#DF6132"></stop></linearGradient><linearGradient id="paint4_linear" x1="1.097" y1="11.842" x2="6.318" y2="16.243" gradientUnits="userSpaceOnUse"><stop stop-color="#DD571D"></stop><stop offset=".645" stop-color="#DF6132"></stop></linearGradient><radialGradient id="pkb1" cx="0" cy="0" r="1" gradientTransform="matrix(11.6095 .75457 -.56841 8.74533 13.24 18.89)" gradientUnits="userSpaceOnUse"><stop stop-color="#BD350E"></stop><stop offset=".44" stop-color="#BF3710" stop-opacity=".51"></stop><stop offset=".62" stop-color="#C43E15" stop-opacity=".3"></stop><stop offset=".76" stop-color="#CE4B20" stop-opacity=".15"></stop><stop offset=".87" stop-color="#DB5C2E" stop-opacity=".03"></stop><stop offset=".89" stop-color="#DF6132" stop-opacity=".01"></stop></radialGradient><radialGradient id="pkb2" cx="0" cy="0" r="1" gradientTransform="matrix(7.21222 0 0 10.9971 4.56 17.34)" gradientUnits="userSpaceOnUse"><stop stop-color="#E05E21"></stop><stop offset=".56" stop-color="#DF602A" stop-opacity=".37"></stop><stop offset=".89" stop-color="#DF6132" stop-opacity=".01"></stop></radialGradient><radialGradient id="pkb3" cx="0" cy="0" r="1" gradientTransform="matrix(6.56903 -.50925 .72514 9.35388 9.55 19.07)" gradientUnits="userSpaceOnUse"><stop stop-color="#E05E21"></stop><stop offset=".56" stop-color="#DF602A" stop-opacity=".37"></stop><stop offset=".89" stop-color="#DF6132" stop-opacity=".01"></stop></radialGradient><radialGradient id="pkb4" cx="0" cy="0" r="1" gradientTransform="matrix(3.6871 1.32408 -1.5528 4.32403 19.22 24.54)" gradientUnits="userSpaceOnUse"><stop stop-color="#C13B12"></stop><stop offset=".72" stop-color="#DD5D28" stop-opacity=".41"></stop><stop offset=".99" stop-color="#DF602A" stop-opacity=".01"></stop><stop offset="1" stop-color="#DF6132" stop-opacity=".01"></stop></radialGradient><radialGradient id="pkb5" cx="0" cy="0" r="1" gradientTransform="rotate(-155.06 12.96 2.95) scale(28.6853 24.6493)" gradientUnits="userSpaceOnUse"><stop stop-color="#FFE491"></stop><stop offset=".13" stop-color="#FFE491"></stop><stop offset=".3" stop-color="#F9C16E"></stop><stop offset=".53" stop-color="#F19645"></stop><stop offset="1" stop-color="#EE8635"></stop></radialGradient><radialGradient id="pkb6" cx="0" cy="0" r="1" gradientTransform="matrix(2.47103 -3.42617 11.3089 8.15624 18.457 4.628)" gradientUnits="userSpaceOnUse"><stop stop-color="#E74C29"></stop><stop offset=".26" stop-color="#DE4926"></stop><stop offset=".67" stop-color="#C7421C"></stop><stop offset="1" stop-color="#B03B13"></stop></radialGradient><linearGradient id="pkb0" x1="3.05" x2="13.03" y1="23.44" y2="31.87" gradientUnits="userSpaceOnUse"><stop stop-color="#DD571D"></stop><stop offset=".65" stop-color="#DF6132"></stop></linearGradient><linearGradient id="paint-preloader_linear" x1="12.083" y1="2.75" x2="14.417" y2="8" gradientUnits="userSpaceOnUse"><stop stop-color="#BDBDBF"></stop><stop offset=".526" stop-color="#BDBDBF" stop-opacity=".6"></stop><stop offset="1" stop-color="#BDBDBF" stop-opacity="0"></stop></linearGradient><circle id="loadingCircle" cx="50" cy="50" r="50"></circle><mask id="loadingCircleMask" x="0" y="0" width="100" height="100" fill="#fff"><use xlink:href="#loadingCircle"></use></mask><linearGradient id="telegram-logo-16-a" x1="10.672" y1="2.672" x2="6.672" y2="12" gradientUnits="userSpaceOnUse"><stop stop-color="#37AEE2"></stop><stop offset="1" stop-color="#1E96C8"></stop></linearGradient><linearGradient id="telegram-logo-16-b" x1="9.003" y1="8.001" x2="10.251" y2="10.845" gradientUnits="userSpaceOnUse"><stop stop-color="#EFF7FC"></stop><stop offset="1" stop-color="#fff"></stop></linearGradient><linearGradient id="telegram_paint11_linear" x1="10.672" y1="2.672" x2="6.672" y2="12" gradientUnits="userSpaceOnUse"><stop stop-color="#37AEE2"></stop><stop offset="1" stop-color="#1E96C8"></stop></linearGradient><linearGradient id="telegram_paint1_linear" x1="9.003" y1="8.001" x2="10.252" y2="10.845" gradientUnits="userSpaceOnUse"><stop stop-color="#EFF7FC"></stop><stop offset="1" stop-color="#fff"></stop></linearGradient><clipPath id="clip1"><path fill="#fff" transform="translate(6 6)" d="M0 0h12v12H0z"></path></clipPath></defs>
    <symbol id="icon--emotions__sad" viewBox="0 0 32 32"><path d="M3.465 10.652C3.919 7.779 5.074 2.156 16 2.156c11.388 0 12.147 5.688 12.649 8.496-4.522 4.38-25.184 0-25.184 0Z" fill="#BBE1FC"></path><path d="M29.206 16.568c-.133 8.36-5.773 12.729-13.164 12.729s-13.25-5.22-13.254-12.503C2.784 4.668 8.606 2.924 15.997 2.924c7.39 0 13.4 1.569 13.209 13.644Z" fill="url(#paint_sad_linear)"></path><path d="M3.266 20.274S7.112 26.75 16 26.75s12.734-6.476 12.734-6.476-1.38 9.57-12.691 9.57c-11.312 0-12.777-9.57-12.777-9.57Z" fill="#D17715"></path><path d="M10.956 23.536s.339.818 1.333.86c.994.044 1.096-.59 1.208-1.006.112-.417.218-2.4 1.57-2.651.79-.146 2.063-.157 2.72 1.11.319.613.138 2.475 1.33 2.682 1.656.287 1.709-1.161 1.709-1.161s-2.703-4.08-3.485-4.29c-.782-.21-3.058-.262-3.243-.2-.184.062-1.076.884-1.264 1.169-.187.284-1.878 3.487-1.878 3.487Z" fill="#FCD996"></path><path d="M15.568 18.395c-1.962 0-3.621 1.434-4.121 2.647-.594 1.44-.683 2.58-.355 2.68.623.19 1.487.289 1.622.064.135-.224.233-2.906 1.78-3.533 1.547-.627 2.839-.113 3.642 1.035.834 1.193.394 2.658 1.048 2.722.653.064 1.808-.073 1.675-.965-.134-.894-1.554-4.65-5.291-4.65ZM12.045 13.958c-.53.046-.482.497-.677 1.045-.194.548-.938 1.708-2.333 1.534-1.394-.174-1.857-1.117-2.025-1.805-.168-.688-.286-.857-.84-.92-.552-.061-1.206.218-1.087.959.119.74 1.052 3.4 4.61 3.303 3.558-.098 4.096-3.302 4.04-3.687-.053-.386-.894-.5-1.688-.43Z" fill="#6A3614"></path><path d="M5.507 13.904s-.173.302.184 1.147c.357.844 1.443 2.07 2.984 2.372 1.542.3 3.073-.392 3.533-.93.46-.536.874-1.776.894-2.072.02-.296-.092-.43-.092-.43s.602.009.715.31c.113.303-.18 1.645-1.152 2.722-.971 1.076-3.305 1.467-4.811.873-1.506-.594-2.462-1.916-2.697-2.893-.232-.978.442-1.1.442-1.1Z" fill="#512A10"></path><path d="M25.015 14.333c-.53.046-.482.497-.677 1.045-.194.548-.938 1.708-2.333 1.534-1.394-.174-1.857-1.117-2.025-1.805-.168-.688-.286-.857-.84-.92-.552-.061-1.206.218-1.087.959.119.74 1.052 3.4 4.61 3.303 3.558-.098 4.096-3.302 4.04-3.687-.054-.386-.894-.5-1.688-.43Z" fill="#6A3614"></path><path d="M18.477 14.279s-.173.302.184 1.147c.357.844 1.443 2.07 2.984 2.372 1.542.3 3.073-.392 3.533-.93.46-.536.874-1.776.894-2.072.02-.297-.092-.43-.092-.43s.602.009.715.31c.113.303-.18 1.645-1.152 2.722-.971 1.076-3.305 1.467-4.811.873-1.506-.594-2.462-1.916-2.697-2.893-.235-.977.442-1.1.442-1.1Z" fill="#512A10"></path><path d="M11.054 5.965c-.564-.143-.684.947-1.561 2.014-.878 1.067-2.206 1.428-3.057 1.473-.851.045-.904.309-.891.688.013.379.037.733.639.87.602.139 3.112.244 4.92-1.264 1.81-1.508 2.123-2.324 1.835-2.732-.288-.408-1.366-.917-1.885-1.05Z" fill="#1576B7"></path><path d="M12.269 6.489s.697.32.772.725c.074.404-.341 1.19-1.356 2.07-1.015.882-2.294 1.927-4.504 1.915-1.975-.01-1.64-1.017-1.64-1.017s.303.342 1.068.433c.765.09 2.077-.162 3.026-.682.95-.52 1.819-1.361 2.26-1.936.442-.576.644-1.194.374-1.508Z" fill="#115F9F"></path><path d="M20.622 6.543c.564-.143.684.947 1.562 2.014.878 1.067 2.206 1.428 3.057 1.473.85.045.904.309.89.688-.012.379-.036.733-.638.87-.602.139-3.112.244-4.921-1.264C18.762 8.816 18.45 8 18.738 7.592c.288-.41 1.365-.918 1.884-1.05Z" fill="#1576B7"></path><path d="M19.407 7.066s-.697.32-.772.725c-.074.404.34 1.19 1.356 2.07 1.015.88 2.294 1.926 4.504 1.914 1.975-.011 1.639-1.017 1.639-1.017s-.302.342-1.067.433c-.765.09-2.077-.162-3.026-.682-.95-.52-1.82-1.361-2.261-1.936-.441-.574-.643-1.192-.373-1.507Z" fill="#115F9F"></path><path d="M10.522 17.007s1.094-.121 1.337-.691c.243-.57-.213.3-1.337.69ZM20.946 17.273s-1.12-.39-1.4-.957c-.34-.695.464.439 1.4.957Z" fill="#B2622B"></path><path d="M6.77 18.855c-.476.45-1.371 1.868-1.774 3.205-.426 1.414.114 2.738 1.674 2.738 1.604 0 2.178-1.33 1.779-2.744-.384-1.357-1.34-2.792-1.678-3.2Z" fill="#5AA8E5"></path><path d="M6.994 24.022c-1.574.685-2.128-.937-2.134-.956.039.977.634 1.732 1.81 1.732 1.605 0 2.179-1.33 1.78-2.744-.383-1.358-1.34-2.793-1.678-3.2-.001 0 2.069 4.364.222 5.168Z" fill="#2F83BC"></path></symbol>
    <use xlink:href="#icon--emotions__sad"/>
</svg>
