<svg id="Capa_1" enable-background="new 0 0 512 512" height="512" viewBox="0 0 512 512" width="512" xmlns="http://www.w3.org/2000/svg"><g><path d="m0 30v452h512v-452zm482 422h-452v-392h452z"/><path d="m452 90h-392v332h392zm-30 30v211.777c-76.975-2.313-117.019-22.441-159.262-43.678-43.54-21.89-88.489-44.481-172.738-46.884v-121.215zm-332 272v-120.777c76.975 2.313 117.019 22.441 159.262 43.678 43.54 21.89 88.489 44.481 172.738 46.884v30.215z"/><path d="m331.5 271c33.359 0 60.5-27.141 60.5-60.5s-27.141-60.5-60.5-60.5-60.5 27.141-60.5 60.5 27.141 60.5 60.5 60.5zm0-91c16.817 0 30.5 13.683 30.5 30.5s-13.683 30.5-30.5 30.5-30.5-13.683-30.5-30.5 13.683-30.5 30.5-30.5z"/></g></svg>