<svg id="_x31__x2C_5" enable-background="new 0 0 24 24" height="512" viewBox="0 0 24 24" width="512" xmlns="http://www.w3.org/2000/svg"><path d="m21.25 3.444c0-1.405-1.139-2.544-2.544-2.544h-13.412c-1.405 0-2.544 1.139-2.544 2.544v17.112c0 1.405 1.139 2.544 2.544 2.544h13.412c1.405 0 2.544-1.139 2.544-2.544z" fill="#eceff1"/><path d="m19.25 24h-14.5c-1.517 0-2.75-1.233-2.75-2.75v-3.5c0-.414.336-.75.75-.75s.75.336.75.75v3.5c0 .689.561 1.25 1.25 1.25h14.5c.689 0 1.25-.561 1.25-1.25v-3.5c0-.414.336-.75.75-.75s.75.336.75.75v3.5c0 1.517-1.233 2.75-2.75 2.75z"/><path d="m21.25 7c-.414 0-.75-.336-.75-.75v-3.5c0-.689-.561-1.25-1.25-1.25h-14.5c-.689 0-1.25.561-1.25 1.25v3.5c0 .414-.336.75-.75.75s-.75-.336-.75-.75v-3.5c0-1.517 1.233-2.75 2.75-2.75h14.5c1.517 0 2.75 1.233 2.75 2.75v3.5c0 .414-.336.75-.75.75z"/><path d="m1.75 15c-.414 0-.75-.336-.75-.75v-4.5c0-.414.336-.75.75-.75s.75.336.75.75v4.5c0 .414-.336.75-.75.75z"/><path d="m6.75 15c-.268 0-.521-.144-.655-.386l-1.095-1.969v1.605c0 .414-.336.75-.75.75s-.75-.336-.75-.75v-4.5c0-.342.231-.64.562-.726s.678.063.843.362l1.095 1.969v-1.605c0-.414.336-.75.75-.75s.75.336.75.75v4.5c0 .342-.231.64-.562.726-.062.016-.125.024-.188.024z"/><path d="m10.75 15h-1.5c-.414 0-.75-.336-.75-.75v-4.5c0-.414.336-.75.75-.75h1.5c.965 0 1.75.785 1.75 1.75v2.5c0 .965-.785 1.75-1.75 1.75zm-.75-1.5h.75c.138 0 .25-.112.25-.25v-2.5c0-.138-.112-.25-.25-.25h-.75z"/><path d="m16.75 12.75h-2.25c-.414 0-.75-.336-.75-.75s.336-.75.75-.75h2.25c.414 0 .75.336.75.75s-.336.75-.75.75z"/><path d="m16.75 15h-1.5c-.965 0-1.75-.785-1.75-1.75v-2.5c0-.965.785-1.75 1.75-1.75h1.5c.414 0 .75.336.75.75s-.336.75-.75.75h-1.5c-.138 0-.25.112-.25.25v2.5c0 .138.112.25.25.25h1.5c.414 0 .75.336.75.75s-.336.75-.75.75z"/><path d="m21.751 15c-.264 0-.52-.139-.656-.386l-2.5-4.5c-.201-.362-.071-.819.291-1.02s.818-.07 1.02.292l2.5 4.5c.201.362.071.819-.291 1.02-.116.064-.241.094-.364.094z"/><path d="m19.249 15c-.123 0-.248-.03-.363-.094-.362-.201-.492-.658-.291-1.02l2.5-4.5c.201-.362.658-.493 1.02-.292s.492.658.291 1.02l-2.5 4.5c-.137.247-.393.386-.657.386z"/></svg>