<svg height="511pt" viewBox="-1 1 511 511.99933" width="511pt" xmlns="http://www.w3.org/2000/svg"><path d="m215.722656 349.433594c-78.191406 5.128906-169.941406-2.144532-215.222656-21.792969v85.195313c0 5.6875 3.089844 10.957031 8.109375 13.628906 34.589844 18.394531 142.800781 26.148437 218.492187 19.621094-13.84375-30.921876-17.355468-64.914063-11.378906-96.652344zm0 0"/><path d="m331.140625 222.441406v-30.441406c-71.671875 31.097656-258.695313 31.144531-330.640625.007812v99.953126c15.285156 16.820312 115.972656 34.742187 224.597656 25.6875 19.429688-47.105469 59.085938-81.664063 106.042969-95.207032zm0 0"/><path d="m331.140625 156.332031v-95.890625c-71.785156 31.148438-258.777344 31.179688-330.640625 0v95.890625c32.773438 36.34375 297.015625 37.28125 330.640625 0zm0 0"/><path d="m329.425781 26.28125c-46.464843-35.183594-281.125-34.902344-327.222656 0 46.097656 34.898438 280.769531 35.171875 327.222656 0zm0 0"/><path d="m376.378906 247.074219c-73.007812 0-132.445312 59.371093-132.445312 132.46875 0 73.035156 59.414062 132.457031 132.445312 132.457031 73.042969 0 132.46875-59.425781 132.46875-132.457031 0-73.042969-59.425781-132.46875-132.46875-132.46875zm82.796875 186.074219c-17.191406 28.976562-48.800781 46.976562-82.464843 46.976562-35.433594 0-66.613282-19.527344-82.425782-46.914062l-12.667968 5.363281h-.019532l-.03125.011719c-10.324218 4.398437-13.59375-2.839844-13.074218-7.070313l7.636718-61.53125c.734375-5.921875 7.597656-8.824219 12.347656-5.226563 11.363282 8.585938 38.765626 29.289063 49.476563 37.382813 4.753906 3.585937 3.84375 10.984375-1.644531 13.296875-1.859375.789062-6.4375 2.71875-13.082032 5.53125 11.539063 17.003906 31.390626 28.15625 53.484376 28.15625 22.765624 0 44.125-12.144531 55.816406-31.804688 4.371094-7.359374 13.878906-9.785156 21.234375-5.414062 7.367187 4.367188 9.785156 13.875 5.414062 21.242188zm16.121094-44.046876c-.734375 5.910157-7.59375 8.8125-12.347656 5.214844l-49.472657-37.382812c-4.753906-3.585938-3.835937-10.984375 1.652344-13.296875 5.464844-2.304688 2.59375-1.089844 13.070313-5.53125-11.921875-17.421875-31.785157-28.15625-53.484375-28.15625-23.046875 0-44.695313 12.339843-56.386719 32.796875-4.234375 7.441406-13.710937 10.035156-21.140625 5.796875-7.5-4.28125-9.996094-13.769531-5.796875-21.140625 16.777344-29.355469 48.269531-48.453125 83.324219-48.453125 34.214844 0 65.335937 18.054687 82.4375 46.914062l15.097656-6.386719c5.484375-2.324218 11.425781 2.167969 10.695312 8.082032zm0 0"/></svg>